<svg width="241" height="441" viewBox="0 0 241 441" fill="none" xmlns="http://www.w3.org/2000/svg">
<path d="M144.768 82.2937C132.645 82.4323 129.81 114.584 148.141 270.248C167.883 184.865 170.888 149.759 170.981 133.315C171.184 97.55 156.891 82.155 144.768 82.2937Z" stroke="#020B2C" stroke-width="4"/>
<path d="M159.001 251.295C209.435 239.112 226.303 217.116 225.256 208.221C224.418 201.105 211.404 190.236 159.001 251.295Z" stroke="#020B2C" stroke-width="4"/>
<path d="M102.94 209.955C89.2248 224.687 109.225 263.325 117.954 337.451C123.897 300.45 145.468 242.036 133.01 220.586C128.914 213.533 116.655 195.223 102.94 209.955Z" stroke="#020B2C" stroke-width="4"/>
<path d="M207.123 267.571C207.291 278.365 193.206 294.281 116.921 339.958C131.875 313.876 156.144 267.514 168.274 258.063C191.81 239.726 206.956 256.776 207.123 267.571Z" stroke="#020B2C" stroke-width="4"/>
<path d="M89.5995 290.101C98.2923 312.302 93.5319 323.842 98.4063 383.976C84.1953 357.013 57.9559 297.889 59.3 286.176C60.8781 272.423 65.0652 272.584 77.4904 271.616C79.4225 272.404 84.5492 277.203 89.5995 290.101Z" stroke="#020B2C" stroke-width="4"/>
<path d="M134.77 335.535C124.924 345.634 110.723 354.994 96.9937 388.35C115.86 376.753 154.926 352.09 156.938 344.479C161.519 327.152 149.512 320.415 134.77 335.535Z" stroke="#020B2C" stroke-width="4"/>
<path d="M266.495 70.5108C238.024 86.8167 194.451 128.411 187.111 192.377C201.052 188.338 228.029 171.621 242.091 160.351C259.668 146.263 275.974 89.9064 277.738 74.529C279.265 61.2235 266.495 70.5108 266.495 70.5108Z" stroke="#020B2C" stroke-width="4"/>
<path d="M191.458 187.507C143.835 269.661 95.6053 373.541 82.3601 411.059" stroke="#020B2C" stroke-width="4" stroke-linecap="round" stroke-linejoin="round"/>
</svg>
