<svg width="400" height="476" viewBox="0 0 437 476" fill="none" xmlns="http://www.w3.org/2000/svg">
<path d="M250.106 358.02C240.126 364.904 219.254 340.285 144.377 202.587C209.779 260.917 232.496 287.851 242.063 301.225C262.872 330.314 260.086 351.136 250.106 358.02Z" stroke="#020B2C" stroke-width="4"/>
<path d="M164.185 211.796C212.401 192.635 238.872 200.861 243.15 208.729C246.573 215.024 242.219 231.412 164.185 211.796Z" stroke="#020B2C" stroke-width="4"/>
<path d="M142.265 277.912C122.562 273.798 116.593 230.702 80.9369 165.131C107.146 191.917 158.477 227.168 160.684 251.875C161.41 259.999 161.968 282.026 142.265 277.912Z" stroke="#020B2C" stroke-width="4"/>
<path d="M194.087 170.729C187.994 161.817 167.306 156.95 78.6464 163.68C105.912 176.348 152.49 200.2 167.85 200.916C197.653 202.306 200.181 179.641 194.087 170.729Z" stroke="#020B2C" stroke-width="4"/>
<path d="M85.1116 220.163C79.3965 197.017 68.8482 190.34 38.1202 138.421C42.0782 168.642 54.7758 232.068 62.634 240.857C71.8607 251.177 75.1874 248.629 85.8924 242.248C87.0155 240.489 88.4319 233.611 85.1116 220.163Z" stroke="#020B2C" stroke-width="4"/>
<path d="M95.7752 156.99C81.9054 154.426 64.906 154.979 34.4421 135.664C56.5423 134.245 102.679 131.837 108.715 136.891C122.457 148.396 116.54 160.828 95.7752 156.99Z" stroke="#020B2C" stroke-width="4"/>
<path d="M356.311 297.383C323.65 300.5 264.06 291.683 221.146 243.685C234.861 238.936 266.54 237.017 284.528 238.104C307.013 239.464 352.857 276.073 363.173 287.612C372.1 297.596 356.311 297.383 356.311 297.383Z" stroke="#020B2C" stroke-width="4"/>
<path d="M227.504 245.155C141.196 205.554 41.8533 148.562 9.38251 125.569" stroke="#020B2C" stroke-width="4" stroke-linecap="round" stroke-linejoin="round"/>
</svg>
