<svg width="420" height="618" viewBox="0 0 420 618" fill="none" xmlns="http://www.w3.org/2000/svg">
<path d="M220.375 380.658C219.319 368.658 241.335 366.149 350.977 385.739C293.671 404.492 269.622 407.143 258.233 407.082C233.462 406.952 221.432 392.659 220.375 380.658Z" stroke="#020B2C" stroke-width="4"/>
<path d="M338.872 396.315C335.223 446.132 321.58 462.628 315.315 461.509C310.303 460.613 301.531 447.628 338.872 396.315Z" stroke="#020B2C" stroke-width="4"/>
<path d="M304.887 340.431C313.795 326.99 342.478 347.148 394.689 356.477C369.607 362.017 331.168 382.832 315.115 370.299C309.837 366.179 295.98 353.873 304.887 340.431Z" stroke="#020B2C" stroke-width="4"/>
<path d="M354.729 444.107C362.227 444.373 371.92 430.577 396.329 355.478C379.671 370.04 349.843 393.637 344.445 405.558C333.973 428.688 347.231 443.841 354.729 444.107Z" stroke="#020B2C" stroke-width="4"/>
<path d="M359.172 327.967C375.387 336.778 382.934 332.172 425.079 337.555C405.038 323.236 361.562 296.712 353.571 297.934C344.188 299.369 344.697 303.515 345.208 315.807C345.938 317.727 349.752 322.847 359.172 327.967Z" stroke="#020B2C" stroke-width="4"/>
<path d="M394.96 373.107C401.024 363.453 406.161 349.48 427.977 336.197C421.732 354.768 408.351 393.214 403.267 395.136C391.692 399.511 385.881 387.561 394.96 373.107Z" stroke="#020B2C" stroke-width="4"/>
<path d="M223.782 501.06C232.377 473.024 257.066 430.272 300.705 423.598C299.232 437.362 290.209 463.915 283.734 477.732C275.64 495.002 238.127 510.623 227.636 512.228C218.558 513.616 223.782 501.06 223.782 501.06Z" stroke="#020B2C" stroke-width="4"/>
<path d="M297.742 427.851C350.159 381.465 417.578 334.68 442.324 321.915" stroke="#020B2C" stroke-width="4" stroke-linecap="round" stroke-linejoin="round"/>
<path d="M265.389 260.706C239.338 243.541 176.915 260.181 173.864 281.46C190.139 284.947 221.796 286.794 265.389 260.706Z" fill="#437432"/>
<path d="M234.609 288.251C211.318 287.604 166.248 313.144 170.853 328.452C183.462 325.916 212.09 319.001 234.609 288.251Z" fill="#437432"/>
<path d="M330.155 201.366C295.908 186.11 240.891 226.692 223.221 237.813C258.862 246.333 291.76 243.323 330.155 201.366Z" fill="#437432"/>
<path d="M293.341 246.738C252.645 281.159 255.805 304.969 250.836 320.26C259.855 317.146 291.3 290.52 293.341 246.738Z" fill="#437432"/>
<path d="M312.952 237.535C294.208 259.372 298.409 275.899 297.27 286.195C301.892 284.462 316.372 267.57 312.952 237.535Z" fill="#437432"/>
<path d="M341.754 206.223C306.773 256.742 319.376 291.177 319.244 313.405C328.682 308.747 355.7 269.67 341.754 206.223Z" fill="#437432"/>
<path d="M391.564 119.995C330.928 129.947 314.924 162.939 298.849 178.291C308.757 181.841 355.632 174.114 391.564 119.995Z" fill="#437432"/>
<path d="M396.854 139.108C354.721 196.741 368.415 238.488 367.634 264.878C378.749 259.983 411.291 215.401 396.854 139.108Z" fill="#437432"/>
<path d="M234.808 294.553C211.517 293.906 166.448 319.446 171.052 334.754C183.662 332.218 212.289 325.303 234.808 294.553ZM234.808 294.553C252.393 281.929 276.091 260.681 301.325 236.324M293.54 253.039C252.844 287.461 256.004 311.271 251.035 326.562C260.055 323.447 291.499 296.822 293.54 253.039ZM293.54 253.039C296.647 242.67 300.024 237.575 301.325 236.324M313.151 243.837C294.407 265.673 298.608 282.201 297.469 292.497C302.092 290.764 316.571 273.871 313.151 243.837ZM313.151 243.837C315.137 226.647 317.952 220.055 319.111 218.907M341.954 212.525C306.972 263.044 319.575 297.478 319.443 319.707C328.881 315.048 355.899 275.972 341.954 212.525ZM341.954 212.525C348.359 192.669 355.404 182.081 358.125 179.269M391.763 126.297C331.127 136.249 315.124 169.241 299.048 184.593C308.956 188.143 355.831 180.415 391.763 126.297ZM391.763 126.297C403.475 127.708 411.685 122.31 414.326 119.435M397.053 145.41C354.92 203.043 368.614 244.79 367.833 271.179C378.948 266.285 411.491 221.703 397.053 145.41ZM397.053 145.41C398.921 137.594 401.393 133.478 402.395 132.397M428.083 104.275C423.968 108.851 419.353 113.941 414.326 119.435M414.326 119.435C410.567 123.544 406.578 127.879 402.395 132.397M402.395 132.397C389.174 146.678 374.024 162.775 358.125 179.269M358.125 179.269C345.4 192.47 332.194 205.925 319.111 218.907M319.111 218.907C313.138 224.835 307.19 230.663 301.325 236.324M265.588 267.008C239.538 249.843 177.114 266.482 174.063 287.762C190.339 291.249 221.996 293.095 265.588 267.008ZM330.354 207.668C296.107 192.412 241.09 232.994 223.42 244.115C259.061 252.635 291.959 249.625 330.354 207.668Z" stroke="#020B2C" stroke-width="4" stroke-linecap="round" stroke-linejoin="round"/>
</svg>
