<svg width="459" height="361" viewBox="0 0 459 361" fill="none" xmlns="http://www.w3.org/2000/svg">
<path fill-rule="evenodd" clip-rule="evenodd" d="M365.827 112.602L446.313 161.76L446.313 64.6911L365.827 112.602Z" fill="white" fill-opacity="0.15"/>
<path fill-rule="evenodd" clip-rule="evenodd" d="M368.542 248.323L449.027 297.48L449.027 200.412L415.639 180.019L335.154 227.93L368.542 248.323ZM365.827 112.602L345.307 100.069L234.148 166.239L125.807 100.069L104.626 112.677L24.1409 160.588L24.1409 63.5197L125.807 3L234.813 69.5768L347.36 3C357.222 9.02297 364.403 13.7229 371.585 18.4228C378.767 23.1227 385.948 27.8226 395.81 33.8455L446.313 64.6911L446.313 161.76L365.827 112.602Z" fill="white" fill-opacity="0.15"/>
<path d="M335.154 130.862C335.154 160.005 335.154 220.22 335.154 227.93L415.639 180.019L335.154 130.862Z" fill="white" fill-opacity="0.15"/>
<path d="M446.313 161.76L365.827 112.602L335.154 130.862L415.639 180.019L446.313 161.76Z" fill="white" fill-opacity="0.15"/>
<path d="M132.831 129.904L104.626 112.677L24.1409 160.588L52.0953 177.662L132.831 129.904Z" fill="white" fill-opacity="0.15"/>
<path d="M132.481 226.759L132.831 129.904L52.0953 177.662L132.481 226.759Z" fill="white" fill-opacity="0.15"/>
<path d="M127.061 229.986L132.481 226.759L52.0953 177.662L19.974 196.663L100.459 245.821L127.061 229.986Z" fill="white" fill-opacity="0.15"/>
<path d="M19.974 196.663L19.9739 293.732L100.459 245.821L19.974 196.663Z" fill="white" fill-opacity="0.15"/>
<path d="M125.807 100.069C125.807 96.4137 125.807 33.8333 125.807 3M125.807 100.069L234.148 166.239M125.807 100.069L125.807 3M125.807 100.069L104.626 112.677M449.027 297.48L347.361 358M449.027 297.48L449.027 200.412M449.027 297.48L368.542 248.323M345.307 100.069C345.307 96.4137 346.676 33.8333 347.36 3M345.307 100.069L234.148 166.239M345.307 100.069L365.827 112.602M446.313 161.76L446.313 64.6911M446.313 161.76L365.827 112.602M446.313 161.76L415.639 180.019M19.9739 293.732L120.98 355.423M19.9739 293.732L19.974 196.663M19.9739 293.732L100.459 245.821M120.98 355.423L120.98 258.354M120.98 355.423L225.715 293.077L233.487 288.45M24.1409 160.588L24.1409 63.5197M24.1409 160.588L104.626 112.677M24.1409 160.588L52.0953 177.662M347.361 358L347.361 260.931M347.361 358L239.921 292.379L233.487 288.45M24.1409 63.5197L125.807 3M24.1409 63.5197L104.626 112.677M132.831 129.904L132.481 226.759M132.831 129.904L104.626 112.677M132.831 129.904L52.0953 177.662M233.487 191.381L347.361 260.931M233.487 191.381L120.98 258.354M233.487 191.381V288.45M347.361 260.931L368.542 248.323M125.807 3L234.813 69.5768M234.813 69.5768L347.36 3M234.813 69.5768L234.148 166.239M335.154 130.862C335.154 160.005 335.154 220.22 335.154 227.93M335.154 130.862L365.827 112.602M335.154 130.862L415.639 180.019M449.027 200.412L368.542 248.323M449.027 200.412L415.639 180.019M19.974 196.663L100.459 245.821M19.974 196.663L52.0953 177.662M347.36 3C357.222 9.02297 364.403 13.7229 371.585 18.4228C378.767 23.1227 385.948 27.8226 395.81 33.8455L446.313 64.6911M120.98 258.354L100.459 245.821M446.313 64.6911L365.827 112.602M335.154 227.93L368.542 248.323M335.154 227.93L415.639 180.019M132.481 226.759L127.061 229.986L100.459 245.821M132.481 226.759L52.0953 177.662" stroke="white" stroke-width="6" stroke-linecap="round" stroke-linejoin="round"/>
<path d="M19.9739 293.732L120.98 355.423L225.715 293.077L233.487 288.45L239.921 292.379L347.361 358L449.027 297.48L368.542 248.323L335.154 227.93L415.639 180.019L446.313 161.76L365.827 112.602L345.307 100.069L234.148 166.239L125.807 100.069L104.626 112.677L24.1409 160.588L52.0953 177.662L132.481 226.759L127.061 229.986L100.459 245.821L19.9739 293.732Z" fill="white" fill-opacity="0.2"/>
<path fill-rule="evenodd" clip-rule="evenodd" d="M303.762 114.396L328.28 128.979L355.249 113.128L331.339 98.9071C330.962 98.6832 330.5 98.682 330.122 98.9038L303.762 114.396ZM327.981 123.086L312.656 113.692C312.248 113.442 312.257 112.828 312.672 112.591L329.202 103.157C329.392 103.049 329.624 103.052 329.811 103.167L345.136 112.561C345.544 112.811 345.535 113.425 345.12 113.662L328.59 123.096C328.4 123.204 328.168 123.201 327.981 123.086Z" fill="#ECB22E"/>
<path fill-rule="evenodd" clip-rule="evenodd" d="M303.762 114.396L328.28 128.979L355.249 113.128L331.339 98.9071C330.962 98.6832 330.5 98.682 330.122 98.9038L303.762 114.396ZM327.981 123.086L312.656 113.692C312.248 113.442 312.257 112.828 312.672 112.591L329.202 103.157C329.392 103.049 329.624 103.052 329.811 103.167L345.136 112.561C345.544 112.811 345.535 113.425 345.12 113.662L328.59 123.096C328.4 123.204 328.168 123.201 327.981 123.086Z" fill="url(#paint0_linear)"/>
<path d="M328.28 128.979L303.762 114.396V145.371C303.762 145.824 303.992 146.241 304.372 146.467L328.28 160.687V128.979Z" fill="#ECB22E"/>
<path d="M328.28 128.979L303.762 114.396V145.371C303.762 145.824 303.992 146.241 304.372 146.467L328.28 160.687V128.979Z" fill="url(#paint1_linear)"/>
<path d="M355.249 113.128L328.28 128.979V160.687L354.638 145.195C355.021 144.97 355.249 144.554 355.249 144.098V113.128Z" fill="#ECB22E"/>
<path d="M355.249 113.128L328.28 128.979V160.687L354.638 145.195C355.021 144.97 355.249 144.554 355.249 144.098V113.128Z" fill="url(#paint2_linear)"/>
<path d="M327.981 123.086L312.656 113.692C312.248 113.442 312.257 112.828 312.672 112.591L329.202 103.157C329.392 103.049 329.624 103.052 329.811 103.167L345.136 112.561C345.544 112.811 345.535 113.425 345.12 113.662L328.59 123.096C328.4 123.204 328.168 123.201 327.981 123.086Z" fill="#020B2C"/>
<path d="M327.981 123.086L312.656 113.692C312.248 113.442 312.257 112.828 312.672 112.591L329.202 103.157C329.392 103.049 329.624 103.052 329.811 103.167L345.136 112.561C345.544 112.811 345.535 113.425 345.12 113.662L328.59 123.096C328.4 123.204 328.168 123.201 327.981 123.086Z" fill="url(#paint3_linear)"/>
<path d="M329.506 114.743C328.586 114.743 326.502 114.362 325.522 112.841C329.623 96.4244 328.677 86.9506 326.834 82.2726C324.66 82.0005 321.407 82.0809 319.086 83.0414C316.021 84.3095 310.635 90.5823 306.827 92.5518C301.924 95.088 299.778 92.5518 297.02 93.1859C296.351 93.3396 294.262 94.7709 293.343 96.039C294.262 90.0157 295.935 86.2464 297.94 83.0414C301.311 77.6522 307.44 75.4331 307.44 75.4331C307.44 75.4331 317.206 72.2629 326.441 81.4563C325.786 80.074 325.828 80.1883 324.602 78.9203C324.831 78.5679 325.743 79.4903 326.576 80.4803C327.054 72.8921 327.054 70.6765 327.321 69.4098C328.577 63.4453 335.145 58.7581 340.538 57.9973C345.932 57.2364 349.732 57.3632 353.41 58.6313C351.265 59.5823 350.713 60.2164 350.652 61.4844C350.345 67.8247 346.78 71.0287 344.522 72.8969C341.458 75.4331 336.199 75.1498 328.893 80.1883C327.973 80.8223 327.476 81.4563 327.36 81.4563C330.529 85.5609 333.299 95.1244 329.506 114.743Z" fill="#0B7D1D"/>
<path d="M329.506 114.743C328.586 114.743 326.502 114.362 325.522 112.841C329.623 96.4244 328.677 86.9506 326.834 82.2726C324.66 82.0005 321.407 82.0809 319.086 83.0414C316.021 84.3095 310.635 90.5823 306.827 92.5518C301.924 95.088 299.778 92.5518 297.02 93.1859C296.351 93.3396 294.262 94.7709 293.343 96.039C294.262 90.0157 295.935 86.2464 297.94 83.0414C301.311 77.6522 307.44 75.4331 307.44 75.4331C307.44 75.4331 317.206 72.2629 326.441 81.4563C325.786 80.074 325.828 80.1883 324.602 78.9203C324.831 78.5679 325.743 79.4903 326.576 80.4803C327.054 72.8921 327.054 70.6765 327.321 69.4098C328.577 63.4453 335.145 58.7581 340.538 57.9973C345.932 57.2364 349.732 57.3632 353.41 58.6313C351.265 59.5823 350.713 60.2164 350.652 61.4844C350.345 67.8247 346.78 71.0287 344.522 72.8969C341.458 75.4331 336.199 75.1498 328.893 80.1883C327.973 80.8223 327.476 81.4563 327.36 81.4563C330.529 85.5609 333.299 95.1244 329.506 114.743Z" fill="url(#paint4_linear)"/>
<path fill-rule="evenodd" clip-rule="evenodd" d="M329.506 114.743C328.586 114.743 326.502 114.362 325.522 112.841C329.623 96.4244 328.677 86.9506 326.834 82.2726C326.76 82.0842 326.667 81.9035 326.578 81.7305C326.53 81.6369 326.483 81.5455 326.441 81.4563C325.846 80.2001 325.826 80.1799 324.907 79.2349C324.815 79.1401 324.714 79.0359 324.602 78.9203C324.831 78.5679 325.743 79.4902 326.576 80.4803C326.856 80.8133 327.127 81.1539 327.36 81.4563C330.529 85.5609 333.299 95.1244 329.506 114.743Z" fill="#067E1A"/>
<path fill-rule="evenodd" clip-rule="evenodd" d="M329.506 114.743C328.586 114.743 326.502 114.362 325.522 112.841C329.623 96.4244 328.677 86.9506 326.834 82.2726C326.76 82.0842 326.667 81.9035 326.578 81.7305C326.53 81.6369 326.483 81.5455 326.441 81.4563C325.846 80.2001 325.826 80.1799 324.907 79.2349C324.815 79.1401 324.714 79.0359 324.602 78.9203C324.831 78.5679 325.743 79.4902 326.576 80.4803C326.856 80.8133 327.127 81.1539 327.36 81.4563C330.529 85.5609 333.299 95.1244 329.506 114.743Z" fill="url(#paint5_linear)"/>
<path d="M327.054 80.9855C334.899 67.5441 339.313 64.8177 343.297 63.2327C337.719 65.4518 332.877 67.6709 327.054 80.9855Z" fill="#0B7D1D"/>
<path d="M327.054 80.9855C334.899 67.5441 339.313 64.8177 343.297 63.2327C337.719 65.4518 332.877 67.6709 327.054 80.9855Z" fill="url(#paint6_linear)"/>
<path d="M326.592 81.7843C308.873 78.0795 308.399 83.214 304.375 84.6886C307.467 82.8844 310.639 76.7804 326.592 81.7843Z" fill="#0B7D1D"/>
<path d="M326.592 81.7843C308.873 78.0795 308.399 83.214 304.375 84.6886C307.467 82.8844 310.639 76.7804 326.592 81.7843Z" fill="url(#paint7_linear)"/>
<path d="M424.731 261.758C422.533 262.821 420.182 265.95 417.914 274.087C422.845 269.96 433.072 266.716 429.779 262.114C428.84 260.8 426.929 260.694 424.731 261.758Z" fill="#8BC677"/>
<path d="M404.414 292.507C406.567 294.652 413.057 296.851 420.018 295.273C414.016 291.398 403.012 280.115 402.065 286.666C401.794 288.536 402.261 290.362 404.414 292.507Z" fill="#8BC677"/>
<path d="M418.691 243.361C417.563 245.584 416.723 252.487 419.677 260.385C421.189 254.013 427.949 242.831 422.635 241.228C421.118 240.77 419.819 241.139 418.691 243.361Z" fill="#8BC677"/>
<path d="M425.488 286.002C423.478 288.023 423.812 288.291 420.018 295.273C425.116 291.319 437.848 288.115 434.395 282.59C433.409 281.013 427.954 283.522 425.488 286.002Z" fill="#8BC677"/>
<path d="M405.753 268.29C407.402 270.731 410.5 274.096 417.914 274.087C412.803 269.235 407.37 256.497 404.81 262.378C404.079 264.057 404.104 265.849 405.753 268.29Z" fill="#8BC677"/>
<path d="M414.337 255.944C415.623 256.825 418.061 259.818 418.725 266.214C416.052 265.423 410.981 261.642 409.936 260.003C408.202 257.284 409.544 255.748 410.706 255.308C412.365 254.678 413.066 255.074 414.337 255.944Z" fill="#8BC677"/>
<path d="M427.001 257.542C428.922 254.961 428.137 253.092 426.911 252.917C423.406 252.418 421.072 260.835 418.725 266.214C421.446 265.627 425.843 259.099 427.001 257.542Z" fill="#8BC677"/>
<path d="M405.404 277.935C402.424 274.389 404.055 271.616 405.891 271.352C411.144 270.599 412.536 276.011 418.254 283.769C414.143 283.002 407.2 280.074 405.404 277.935Z" fill="#8BC677"/>
<path d="M423.668 272.916C426.589 270.404 429.449 271.131 429.862 272.865C431.045 277.824 426.054 277.874 418.254 283.769C418.766 279.808 422.751 273.704 423.668 272.916Z" fill="#8BC677"/>
<path d="M419.824 256.837C419.586 259.146 418.909 263.838 418.749 267.276C417.544 275.163 418.45 280.369 418.129 285.684C418.662 293.153 419.76 292.969 420.402 294.36" stroke="#8BC677" stroke-width="2.5" stroke-linecap="round" stroke-linejoin="round"/>
<path d="M286.766 147.837C284.435 148.531 281.639 151.242 278.17 158.911C283.664 155.633 294.256 154.083 291.699 149.005C290.969 147.555 289.098 147.142 286.766 147.837Z" fill="#6C9A5C"/>
<path d="M262.052 174.922C263.854 177.389 269.931 180.611 277.046 180.177C271.703 175.379 262.54 162.455 260.614 168.773C260.064 170.576 260.25 172.455 262.052 174.922Z" fill="#6C9A5C"/>
<path d="M283.581 128.689C282.131 130.702 280.259 137.385 281.982 145.663C284.439 139.614 292.805 129.664 287.799 127.22C286.37 126.522 285.031 126.677 283.581 128.689Z" fill="#6C9A5C"/>
<path d="M283.849 171.905C281.559 173.576 281.849 173.895 277.046 180.177C282.679 177.097 295.738 175.991 293.163 169.976C292.428 168.259 286.66 169.855 283.849 171.905Z" fill="#6C9A5C"/>
<path d="M267.034 151.22C268.294 153.897 270.845 157.721 278.17 158.911C273.855 153.293 270.414 139.833 266.997 145.228C266.021 146.768 265.775 148.542 267.034 151.22Z" fill="#6C9A5C"/>
<path d="M277.379 140.414C278.516 141.492 280.471 144.842 280.16 151.267C277.64 150.054 273.203 145.499 272.419 143.711C271.117 140.745 272.674 139.444 273.888 139.197C275.623 138.845 276.255 139.348 277.379 140.414Z" fill="#6C9A5C"/>
<path d="M289.646 144.04C291.933 141.801 291.44 139.828 290.256 139.458C286.869 138.397 283.291 146.334 280.16 151.267C282.937 151.127 288.267 145.39 289.646 144.04Z" fill="#6C9A5C"/>
<path d="M265.232 160.69C262.825 156.705 264.854 154.23 266.708 154.266C272.01 154.372 272.567 159.943 277.042 168.529C273.097 167.107 266.682 163.092 265.232 160.69Z" fill="#6C9A5C"/>
<path d="M284.03 158.686C287.295 156.678 290.009 157.858 290.156 159.637C290.574 164.727 285.637 163.968 277.042 168.529C278.146 164.701 283.006 159.316 284.03 158.686Z" fill="#6C9A5C"/>
<path d="M282.663 142.183C282.079 144.425 280.702 148.95 280.024 152.32C277.642 159.915 277.749 165.203 276.629 170.401C276.027 177.864 277.139 177.861 277.563 179.338" stroke="#6C9A5C" stroke-width="2" stroke-linecap="round" stroke-linejoin="round"/>
<path d="M123.643 64.02C126.034 65.1251 124.183 69.7265 108.866 89.1315C111.364 75.8177 113.54 70.7437 114.756 68.512C117.401 63.658 121.251 62.915 123.643 64.02Z" fill="#8BC677"/>
<path d="M108.871 85.4547C99.792 79.2881 98.1004 74.8024 98.9757 73.6935C99.6759 72.8064 103.07 72.503 108.871 85.4547Z" fill="#8BC677"/>
<path d="M109.7 101.128C109.774 101.034 109.849 100.94 109.924 100.846C110.054 100.992 110.185 101.138 110.318 101.286C110.269 101.048 110.218 100.8 110.165 100.545C117.282 91.7416 123.822 88.387 122.245 85.2347C120.633 82.0137 117.071 83.1281 115.729 83.7147C111.943 85.3708 111.369 94.1877 110.026 99.8718C109.004 94.9307 107.468 87.771 105.929 85.6221C102.642 81.0337 98.7219 81.9712 97.8785 83.4157C97.0473 84.8391 98.5851 88.175 109.813 100.722C109.776 100.86 109.738 100.996 109.7 101.128Z" fill="#8BC677"/>
<path d="M119.113 97.0041C115.834 99.1553 114.828 101.265 109.8 108.373C109.378 103.587 107.843 101.154 106.752 99.0995C104.966 95.7342 101.696 95.7315 101.303 98.4848C101.142 99.6144 106.27 105.653 109.284 109.1C109.497 109.343 109.699 109.573 109.888 109.788C109.875 109.458 109.858 109.137 109.836 108.826C114.819 106.318 123.783 101.022 124.374 99.3804C125.093 97.3794 125.29 96.834 122.9 95.5898C122.458 95.5232 121.082 95.7127 119.113 97.0041Z" fill="#8BC677"/>
<path d="M100.544 51.461C104.962 56.2171 110.691 65.6543 107.344 74.961C104.885 73.1657 100.794 68.4879 98.854 65.7039C96.4286 62.224 97.2104 53.2342 98.015 50.9969C98.7112 49.061 100.544 51.461 100.544 51.461Z" fill="#8BC677"/>
<path d="M106.312 69.6249C109.343 85.0531 110.817 103.448 110.528 109.703" stroke="#8BC677" stroke-width="1.5" stroke-linecap="round" stroke-linejoin="round"/>
<path d="M125.536 65C122.926 67.2829 122.145 71.2263 123.663 76.8539C127.604 74.2757 129.741 68.7107 128.774 66.7312C128.105 65.3609 126.71 63.9727 125.536 65Z" fill="#6C9A5C"/>
<path d="M129.084 101.334C126.389 102.445 124.736 105.666 124.496 111.183C128.339 110.276 131.506 106.092 131.242 104C131.058 102.552 130.296 100.834 129.084 101.334Z" fill="#6C9A5C"/>
<path d="M116.039 76.351C114.568 79.6086 117.846 84.7688 122.248 85.3414C124.044 81.0846 121.137 75.586 118.965 74.9642C117.505 74.5461 116.681 74.9303 116.039 76.351Z" fill="#6C9A5C"/>
<path d="M115.071 102.621C114.492 106.108 119.529 110.085 123.993 109.422C124.626 104.9 119.863 100.501 117.57 100.507C116.029 100.51 115.324 101.1 115.071 102.621Z" fill="#6C9A5C"/>
<path d="M118.048 116.291C117.982 119.22 122.618 121.62 126.545 120.273C126.524 116.497 122.079 113.707 120.019 114.127C118.633 114.409 118.076 115.014 118.048 116.291Z" fill="#6C9A5C"/>
<path d="M130.18 112.051C127.439 113.126 126.473 118.514 128.798 121.766C132.303 120.279 133.685 114.922 132.731 113.105C132.09 111.883 131.375 111.583 130.18 112.051Z" fill="#6C9A5C"/>
<path d="M128.844 79.1021C125.649 79.2464 123.243 83.1322 122.678 88.1488C125.732 88.302 131.182 84.202 131.227 81.9737C131.258 80.4051 130.348 79.0342 128.844 79.1021Z" fill="#6C9A5C"/>
<path d="M128.677 90.4164C125.482 90.5607 123.077 94.4465 122.511 99.4632C125.566 99.6163 131.015 95.5164 131.06 93.288C131.092 91.7195 130.182 90.3485 128.677 90.4164Z" fill="#6C9A5C"/>
<path d="M114.617 89.9992C114.013 93.2209 117.869 95.9103 122.606 97.0428C123.466 93.9953 120.111 88.2275 117.959 87.9315C116.444 87.7232 114.901 88.4823 114.617 89.9992Z" fill="#6C9A5C"/>
<path d="M124.353 74.5548C119.665 95.6952 125.065 115.393 128.191 122.309" stroke="#6C9A5C" stroke-width="1.5" stroke-linecap="round" stroke-linejoin="round"/>
<path fill-rule="evenodd" clip-rule="evenodd" d="M291.857 216.64L279.104 225.27L282.215 227.311L294.968 218.681L291.857 216.64Z" fill="#F9CD34"/>
<path d="M279.104 225.27L277.076 228.108L280.189 230.178L282.215 227.311L279.104 225.27Z" fill="#FFDC84"/>
<path d="M291.857 216.64L294.968 218.681L296.816 218.572L293.703 216.502L291.857 216.64Z" fill="#FFDC84"/>
<path fill-rule="evenodd" clip-rule="evenodd" d="M280.189 230.178L282.215 227.311L294.968 218.681L296.816 218.572L280.189 230.178Z" fill="#ECB22E"/>
<path fill-rule="evenodd" clip-rule="evenodd" d="M284.101 211.847L271.348 220.477L274.459 222.518L287.212 213.889L284.101 211.847Z" fill="#F9CD34"/>
<path d="M271.348 220.477L269.32 223.315L272.433 225.385L274.459 222.518L271.348 220.477Z" fill="#FFDC84"/>
<path d="M284.101 211.847L287.212 213.889L289.06 213.779L285.947 211.709L284.101 211.847Z" fill="#FFDC84"/>
<path fill-rule="evenodd" clip-rule="evenodd" d="M272.433 225.385L274.459 222.518L287.212 213.889L289.06 213.779L272.433 225.385Z" fill="#ECB22E"/>
<path fill-rule="evenodd" clip-rule="evenodd" d="M276.346 207.054L263.593 215.684L266.704 217.726L279.457 209.096L276.346 207.054Z" fill="#F9CD34"/>
<path d="M263.593 215.684L261.565 218.522L264.678 220.592L266.704 217.726L263.593 215.684Z" fill="#FFDC84"/>
<path d="M276.346 207.054L279.457 209.096L281.304 208.986L278.191 206.916L276.346 207.054Z" fill="#FFDC84"/>
<path fill-rule="evenodd" clip-rule="evenodd" d="M264.678 220.592L266.704 217.726L279.457 209.096L281.304 208.986L264.678 220.592Z" fill="#ECB22E"/>
<path fill-rule="evenodd" clip-rule="evenodd" d="M268.59 202.261L255.837 210.891L258.948 212.933L271.701 204.303L268.59 202.261Z" fill="#F9CD34"/>
<path d="M255.837 210.891L253.809 213.729L256.922 215.799L258.948 212.933L255.837 210.891Z" fill="#FFDC84"/>
<path d="M268.59 202.261L271.701 204.303L273.549 204.193L270.436 202.123L268.59 202.261Z" fill="#FFDC84"/>
<path fill-rule="evenodd" clip-rule="evenodd" d="M256.922 215.799L258.948 212.933L271.701 204.303L273.549 204.193L256.922 215.799Z" fill="#ECB22E"/>
<path fill-rule="evenodd" clip-rule="evenodd" d="M260.835 197.469L248.082 206.098L251.193 208.14L263.946 199.51L260.835 197.469Z" fill="#F9CD34"/>
<path d="M248.082 206.098L246.054 208.937L249.167 211.006L251.193 208.14L248.082 206.098Z" fill="#FFDC84"/>
<path d="M260.835 197.469L263.946 199.51L265.794 199.4L262.681 197.33L260.835 197.469Z" fill="#FFDC84"/>
<path fill-rule="evenodd" clip-rule="evenodd" d="M249.167 211.006L251.193 208.14L263.946 199.51L265.794 199.4L249.167 211.006Z" fill="#ECB22E"/>
<path fill-rule="evenodd" clip-rule="evenodd" d="M253.08 192.676L240.326 201.305L243.437 203.347L256.191 194.717L253.08 192.676Z" fill="#F9CD34"/>
<path d="M240.326 201.305L238.299 204.144L241.411 206.214L243.437 203.347L240.326 201.305Z" fill="#FFDC84"/>
<path d="M253.08 192.676L256.191 194.717L258.038 194.607L254.925 192.538L253.08 192.676Z" fill="#FFDC84"/>
<path fill-rule="evenodd" clip-rule="evenodd" d="M241.411 206.214L243.437 203.347L256.191 194.717L258.038 194.607L241.411 206.214Z" fill="#ECB22E"/>
<path fill-rule="evenodd" clip-rule="evenodd" d="M245.324 187.883L232.571 196.513L235.682 198.554L248.435 189.924L245.324 187.883Z" fill="#F9CD34"/>
<path d="M232.571 196.513L230.543 199.351L233.656 201.421L235.682 198.554L232.571 196.513Z" fill="#FFDC84"/>
<path d="M245.324 187.883L248.435 189.924L250.282 189.815L247.17 187.745L245.324 187.883Z" fill="#FFDC84"/>
<path fill-rule="evenodd" clip-rule="evenodd" d="M233.656 201.421L235.682 198.554L248.435 189.924L250.282 189.815L233.656 201.421Z" fill="#ECB22E"/>
<path fill-rule="evenodd" clip-rule="evenodd" d="M237.569 183.09L224.815 191.72L227.926 193.761L240.68 185.132L237.569 183.09Z" fill="#F9CD34"/>
<path d="M224.815 191.72L222.788 194.558L225.9 196.628L227.926 193.761L224.815 191.72Z" fill="#FFDC84"/>
<path d="M237.569 183.09L240.68 185.132L242.527 185.022L239.414 182.952L237.569 183.09Z" fill="#FFDC84"/>
<path fill-rule="evenodd" clip-rule="evenodd" d="M225.9 196.628L227.926 193.761L240.68 185.132L242.527 185.022L225.9 196.628Z" fill="#ECB22E"/>
<path fill-rule="evenodd" clip-rule="evenodd" d="M229.813 178.297L217.06 186.927L220.171 188.969L232.924 180.339L229.813 178.297Z" fill="#F9CD34"/>
<path d="M217.06 186.927L215.032 189.765L218.145 191.835L220.171 188.969L217.06 186.927Z" fill="#FFDC84"/>
<path d="M229.813 178.297L232.924 180.339L234.771 180.229L231.658 178.159L229.813 178.297Z" fill="#FFDC84"/>
<path fill-rule="evenodd" clip-rule="evenodd" d="M218.145 191.835L220.171 188.969L232.924 180.339L234.771 180.229L218.145 191.835Z" fill="#ECB22E"/>
<path d="M290.17 229.697L182.504 162.644L182.49 163.41L290.157 230.463L290.17 229.697Z" fill="#FFDC84"/>
<path d="M290.923 228.945L183.257 161.892L182.504 162.644L290.17 229.697L290.923 228.945Z" fill="#F9CD34"/>
<path d="M290.923 228.945L290.17 229.697L290.157 230.463L290.91 229.711L290.923 228.945Z" fill="#ECB22E"/>
<path d="M297.06 222.89L189.772 155.192L189.754 155.957L297.043 223.655L297.06 222.89Z" fill="#FFDC84"/>
<path d="M297.818 222.142L190.529 154.444L189.772 155.192L297.06 222.89L297.818 222.142Z" fill="#F9CD34"/>
<path d="M297.818 222.142L297.06 222.89L297.043 223.655L297.8 222.908L297.818 222.142Z" fill="#ECB22E"/>
<path fill-rule="evenodd" clip-rule="evenodd" d="M234.588 195.192L230.356 181.234L228.746 175.924L228.697 175.895L227.723 172.705L200.019 156.202L196.08 153.855L172.911 140.053L168.069 137.169L147.666 125.015L143.572 122.576L125.88 112.037L122.422 109.977V112.5L125.88 114.563L143.572 125.121L147.666 127.564L168.069 139.74L172.911 142.629L196.08 156.455L200.019 158.805L225.474 173.996L227 179.244L231.007 193.025L234.588 195.192Z" fill="#0061BA"/>
<path d="M125.921 133.624L143.612 144.268V140.111L125.921 129.405V133.624Z" fill="#E2E2E2"/>
<path d="M105.18 116.853V121.145L122.462 131.543V127.312L105.18 116.853Z" fill="#E2E2E2"/>
<path d="M122.462 131.543L125.921 133.624V129.405L122.462 127.312V131.543Z" fill="#E2E2E2"/>
<path d="M143.612 144.268L147.707 146.732V142.589L143.612 140.111V144.268Z" fill="#E2E2E2"/>
<path d="M147.707 146.732L168.11 159.007V154.937L147.707 142.589V146.732Z" fill="#E2E2E2"/>
<path d="M168.11 159.007L172.951 161.92V157.867L168.11 154.937V159.007Z" fill="#E2E2E2"/>
<path d="M172.951 161.92L196.121 175.86V171.888L172.951 157.867V161.92Z" fill="#E2E2E2"/>
<path d="M196.121 175.86L200.059 178.229V174.272L196.121 171.888V175.86Z" fill="#E2E2E2"/>
<path d="M200.059 178.229L236.023 199.891L234.588 195.192L231.007 193.025L200.059 174.272V178.229Z" fill="#E2E2E2"/>
<path d="M236.023 199.891C239.423 199.534 247.434 196.958 252.276 189.518L250.841 184.819C248.034 187.8 240.853 194.048 234.588 195.192L236.023 199.891Z" fill="#E2E2E2"/>
<path d="M200.019 158.805L200.059 163.054L227 179.244L225.474 173.996L200.019 158.805Z" fill="#E2E2E2"/>
<path d="M172.911 142.629L172.951 146.788L196.121 160.69L196.08 156.455L172.911 142.629Z" fill="#E2E2E2"/>
<path d="M196.08 156.455L196.121 160.69L200.059 163.054L200.019 158.805L196.08 156.455Z" fill="#E2E2E2"/>
<path d="M147.666 127.564L147.707 131.64L168.11 143.882L168.069 139.74L147.666 127.564Z" fill="#E2E2E2"/>
<path d="M168.069 139.74L168.11 143.882L172.951 146.788L172.911 142.629L168.069 139.74Z" fill="#E2E2E2"/>
<path d="M143.572 125.121L143.612 129.183L147.707 131.64L147.666 127.564L143.572 125.121Z" fill="#E2E2E2"/>
<path d="M125.88 114.563L125.921 118.567L143.612 129.183L143.572 125.121L125.88 114.563Z" fill="#E2E2E2"/>
<path d="M105.18 105.712L105.18 106.121L122.462 116.492L122.422 112.5L105.18 102.187L105.18 105.712Z" fill="#E2E2E2"/>
<path d="M122.462 116.492L125.921 118.567L125.88 114.563L122.422 112.5L122.462 116.492Z" fill="#E2E2E2"/>
<path fill-rule="evenodd" clip-rule="evenodd" d="M234.588 195.192L230.356 181.234L228.746 175.924L228.697 175.895L230.32 181.212L234.588 195.192Z" fill="#E2E2E2"/>
<path fill-rule="evenodd" clip-rule="evenodd" d="M234.588 195.192L230.356 181.234L228.746 175.924L228.697 175.895L230.32 181.212L234.588 195.192Z" fill="#515151"/>
<path fill-rule="evenodd" clip-rule="evenodd" d="M234.588 195.192L230.356 181.234L228.746 175.924L228.697 175.895L230.32 181.212L234.588 195.192Z" fill="url(#paint8_linear)"/>
<path d="M105.18 106.121L105.18 116.853L122.462 127.312V116.492L105.18 106.121Z" fill="#515151"/>
<path d="M105.18 106.121L105.18 116.853L122.462 127.312V116.492L105.18 106.121Z" fill="url(#paint9_linear)"/>
<path d="M168.11 143.882L147.707 131.64V142.589L168.11 154.937V143.882Z" fill="#515151"/>
<path d="M168.11 143.882L147.707 131.64V142.589L168.11 154.937V143.882Z" fill="url(#paint10_linear)"/>
<path d="M196.121 160.69L172.951 146.788V157.867L196.121 171.888V160.69Z" fill="#515151"/>
<path d="M196.121 160.69L172.951 146.788V157.867L196.121 171.888V160.69Z" fill="url(#paint11_linear)"/>
<path d="M227 179.244L200.059 163.054V174.272L231.007 193.025L227 179.244Z" fill="#515151"/>
<path d="M227 179.244L200.059 163.054V174.272L231.007 193.025L227 179.244Z" fill="url(#paint12_linear)"/>
<path d="M250.841 184.819L246.801 171.583C244.649 173.491 238.382 178.094 230.37 181.242L230.356 181.234L234.588 195.192C240.853 194.048 248.034 187.8 250.841 184.819Z" fill="#515151"/>
<path d="M250.841 184.819L246.801 171.583C244.649 173.491 238.382 178.094 230.37 181.242L230.356 181.234L234.588 195.192C240.853 194.048 248.034 187.8 250.841 184.819Z" fill="url(#paint13_linear)"/>
<path d="M143.612 140.111V129.183L134.766 123.875L125.921 118.567V129.405L143.612 140.111Z" fill="#515151"/>
<path d="M143.612 140.111V129.183L134.766 123.875L125.921 118.567V129.405L143.612 140.111Z" fill="url(#paint14_linear)"/>
<path d="M122.462 131.543L125.921 133.624V129.405L122.462 127.312V131.543Z" fill="#020B2C"/>
<path d="M122.462 131.543L125.921 133.624V129.405L122.462 127.312V131.543Z" fill="url(#paint15_linear)"/>
<path d="M143.612 144.268L147.707 146.732V142.589L143.612 140.111V144.268Z" fill="#020B2C"/>
<path d="M143.612 144.268L147.707 146.732V142.589L143.612 140.111V144.268Z" fill="url(#paint16_linear)"/>
<path d="M168.11 159.007L172.951 161.92V157.867L168.11 154.937V159.007Z" fill="#020B2C"/>
<path d="M168.11 159.007L172.951 161.92V157.867L168.11 154.937V159.007Z" fill="url(#paint17_linear)"/>
<path d="M196.121 175.86L200.059 178.229V174.272L196.121 171.888V175.86Z" fill="#020B2C"/>
<path d="M196.121 175.86L200.059 178.229V174.272L196.121 171.888V175.86Z" fill="url(#paint18_linear)"/>
<path d="M196.08 156.455L196.121 160.69L200.059 163.054L200.019 158.805L196.08 156.455Z" fill="#020B2C"/>
<path d="M196.08 156.455L196.121 160.69L200.059 163.054L200.019 158.805L196.08 156.455Z" fill="url(#paint19_linear)"/>
<path d="M168.069 139.74L168.11 143.882L172.951 146.788L172.911 142.629L168.069 139.74Z" fill="#020B2C"/>
<path d="M168.069 139.74L168.11 143.882L172.951 146.788L172.911 142.629L168.069 139.74Z" fill="url(#paint20_linear)"/>
<path d="M143.572 125.121L143.612 129.183L147.707 131.64L147.666 127.564L143.572 125.121Z" fill="#020B2C"/>
<path d="M143.572 125.121L143.612 129.183L147.707 131.64L147.666 127.564L143.572 125.121Z" fill="url(#paint21_linear)"/>
<path d="M122.462 116.492L125.921 118.567L125.88 114.563L122.422 112.5L122.462 116.492Z" fill="#020B2C"/>
<path d="M122.462 116.492L125.921 118.567L125.88 114.563L122.422 112.5L122.462 116.492Z" fill="url(#paint22_linear)"/>
<path fill-rule="evenodd" clip-rule="evenodd" d="M234.588 195.192L230.356 181.233L228.746 175.924L228.697 175.895L230.32 181.212L234.588 195.192Z" fill="#020B2C"/>
<path fill-rule="evenodd" clip-rule="evenodd" d="M234.588 195.192L230.356 181.233L228.746 175.924L228.697 175.895L230.32 181.212L234.588 195.192Z" fill="url(#paint23_linear)"/>
<path d="M172.951 146.788L168.11 143.882V154.937L172.951 157.867V146.788Z" fill="#020B2C"/>
<path d="M172.951 146.788L168.11 143.882V154.937L172.951 157.867V146.788Z" fill="url(#paint24_linear)"/>
<path d="M147.707 131.64L143.612 129.183V140.111L147.707 142.589V131.64Z" fill="#020B2C"/>
<path d="M147.707 131.64L143.612 129.183V140.111L147.707 142.589V131.64Z" fill="url(#paint25_linear)"/>
<path d="M125.921 118.567L122.462 116.492V127.312L125.921 129.405V118.567Z" fill="#020B2C"/>
<path d="M125.921 118.567L122.462 116.492V127.312L125.921 129.405V118.567Z" fill="url(#paint26_linear)"/>
<path d="M200.059 163.054L196.121 160.69V171.888L200.059 174.272V163.054Z" fill="#020B2C"/>
<path d="M200.059 163.054L196.121 160.69V171.888L200.059 174.272V163.054Z" fill="url(#paint27_linear)"/>
<path d="M243.976 162.331C240.403 161.854 232.15 163.261 227.723 172.705L228.697 175.895L228.746 175.924L230.356 181.233L230.37 181.242C238.382 178.094 244.649 173.491 246.801 171.583L243.976 162.331Z" fill="#020B2C"/>
<path d="M243.976 162.331C240.403 161.854 232.15 163.261 227.723 172.705L228.697 175.895L228.746 175.924L230.356 181.233L230.37 181.242C238.382 178.094 244.649 173.491 246.801 171.583L243.976 162.331Z" fill="url(#paint28_linear)"/>
<path d="M243.976 162.331L121.433 89.3088C117.86 88.8318 109.607 90.2388 105.18 99.6825L122.422 109.977L125.88 112.037L143.572 122.576L147.666 125.015L168.069 137.169L172.911 140.053L196.08 153.855L200.019 156.202L227.723 172.705C232.15 163.261 240.403 161.854 243.976 162.331Z" fill="#020B2C"/>
<path d="M243.976 162.331L121.433 89.3088C117.86 88.8318 109.607 90.2388 105.18 99.6825L122.422 109.977L125.88 112.037L143.572 122.576L147.666 125.015L168.069 137.169L172.911 140.053L196.08 153.855L200.019 156.202L227.723 172.705C232.15 163.261 240.403 161.854 243.976 162.331Z" fill="url(#paint29_linear)"/>
<path fill-rule="evenodd" clip-rule="evenodd" d="M234.588 195.192L230.356 181.234L228.746 175.924L228.697 175.895L230.32 181.212L234.588 195.192Z" fill="#0061BA"/>
<path d="M122.422 109.977L105.18 99.6825L105.18 102.184L105.18 102.187L122.422 112.5C122.413 111.509 122.422 109.977 122.422 109.977Z" fill="#0061BA"/>
<path d="M136.852 183.661C128.396 183.008 117.725 168.583 120.602 163.323C124.683 165.342 131.802 170.367 136.852 183.661Z" fill="#6C9A5C"/>
<path d="M134.801 172.244C129.682 168.387 124.223 154.962 127.756 152.345C130.048 155.075 135.061 161.531 134.801 172.244Z" fill="#6C9A5C"/>
<path d="M140.937 207.994C131.034 205.508 125.933 187.026 123.976 181.515C133.061 185.74 139.641 192.06 140.937 207.994Z" fill="#6C9A5C"/>
<path d="M140.548 191.571C137.505 176.92 142.138 172.162 143.608 167.905C145.032 170.147 147.378 181.475 140.548 191.571Z" fill="#6C9A5C"/>
<path d="M143.24 196.988C142.832 188.908 146.48 185.95 147.944 183.463C148.651 184.642 148.963 190.889 143.24 196.988Z" fill="#6C9A5C"/>
<path d="M144.24 208.905C145.099 191.651 153.529 186.15 157.191 181.18C158.448 183.838 157.775 197.176 144.24 208.905Z" fill="#6C9A5C"/>
<path d="M140.642 236.654C129.246 224.024 131.279 213.932 130.369 207.754C133.09 208.665 141.895 218.436 140.642 236.654Z" fill="#6C9A5C"/>
<path d="M144.954 233.308C145.456 213.242 155.334 206.301 159.547 200.293C161.126 203.291 160.727 218.804 144.954 233.308Z" fill="#6C9A5C"/>
<path d="M134.801 172.244C129.682 168.387 124.223 154.962 127.756 152.345C130.048 155.075 135.061 161.531 134.801 172.244ZM134.801 172.244C136.49 178.074 138.061 186.873 139.448 196.629M140.548 191.571C137.505 176.92 142.138 172.162 143.608 167.905C145.032 170.147 147.378 181.475 140.548 191.571ZM140.548 191.571C139.494 194.413 139.376 196.127 139.448 196.629M143.24 196.988C142.832 188.908 146.48 185.95 147.944 183.463C148.651 184.642 148.963 190.889 143.24 196.988ZM143.24 196.988C140.813 201.155 140.325 203.106 140.384 203.561M144.24 208.905C145.099 191.651 153.529 186.15 157.191 181.18C158.448 183.838 157.775 197.176 144.24 208.905ZM144.24 208.905C142.321 214.425 142.079 217.992 142.198 219.085M140.642 236.654C129.246 224.024 131.279 213.932 130.369 207.754C133.09 208.665 141.895 218.436 140.642 236.654ZM140.642 236.654C143.396 238.351 144.267 240.963 144.358 242.056M144.954 233.308C145.456 213.242 155.334 206.301 159.547 200.293C161.126 203.291 160.727 218.804 144.954 233.308ZM144.954 233.308C144.058 235.368 143.906 236.709 143.943 237.122M144.802 247.794C144.676 246.068 144.528 244.143 144.358 242.056M144.358 242.056C144.231 240.496 144.093 238.846 143.943 237.122M143.943 237.122C143.468 231.672 142.881 225.487 142.198 219.085M142.198 219.085C141.651 213.961 141.044 208.698 140.384 203.561M140.384 203.561C140.082 201.215 139.77 198.897 139.448 196.629M136.852 183.661C128.396 183.008 117.725 168.583 120.602 163.323C124.683 165.342 131.802 170.367 136.852 183.661ZM140.937 207.994C131.034 205.508 125.933 187.026 123.976 181.515C133.061 185.74 139.641 192.06 140.937 207.994Z" stroke="#6C9A5C" stroke-width="2" stroke-linecap="round" stroke-linejoin="round"/>
<path d="M167.039 204.265C164.208 204.277 160.237 206.399 153.983 213.866C161.159 211.994 173.524 213.741 172.217 207.199C171.843 205.332 169.87 204.252 167.039 204.265Z" fill="#6C9A5C"/>
<path d="M130.967 226.531C132.231 229.893 138.061 235.51 146.18 237.365C141.659 230.221 135.35 212.699 131.245 219.156C130.073 220.999 129.703 223.169 130.967 226.531Z" fill="#6C9A5C"/>
<path d="M169.354 181.725C167.107 183.507 162.95 190.392 162.338 200.25C166.956 194.269 179.408 185.854 174.54 181.464C173.151 180.21 171.601 179.943 169.354 181.725Z" fill="#6C9A5C"/>
<path d="M156.361 230.32C153.276 231.442 153.504 231.895 146.18 237.365C153.451 235.762 168.449 238.819 167.409 231.22C167.112 229.051 160.147 228.943 156.361 230.32Z" fill="#6C9A5C"/>
<path d="M143.851 201.567C144.441 204.987 146.128 210.119 153.983 213.866C150.868 206.139 151.147 189.898 145.651 194.829C144.083 196.237 143.261 198.147 143.851 201.567Z" fill="#6C9A5C"/>
<path d="M158.786 192.843C159.731 194.427 160.895 198.831 158.569 205.94C156.114 203.749 152.534 197.176 152.204 194.911C151.656 191.153 153.803 190.207 155.242 190.329C157.297 190.504 157.852 191.277 158.786 192.843Z" fill="#6C9A5C"/>
<path d="M171.439 200.951C174.695 199.191 174.749 196.814 173.534 196.008C170.058 193.703 163.601 201.434 158.569 205.94C161.728 206.697 169.476 202.012 171.439 200.951Z" fill="#6C9A5C"/>
<path d="M138.914 211.603C137.439 206.338 140.478 204.228 142.547 204.879C148.466 206.743 147.377 213.179 149.759 224.29C145.769 221.395 139.804 214.777 138.914 211.603Z" fill="#6C9A5C"/>
<path d="M162.609 218.638C166.892 217.459 168.917 220.242 168.534 222.288C167.439 228.139 160.809 222 149.759 224.29C152.176 220.356 161.265 219.008 162.609 218.638Z" fill="#6C9A5C"/>
<path d="M164.173 196.568C162.828 198.892 159.89 203.518 158.092 207.077C153.082 214.818 151.576 220.789 148.72 226.255C145.748 234.434 146.998 234.796 147.019 236.593" stroke="#6C9A5C" stroke-width="3" stroke-linecap="round" stroke-linejoin="round"/>
<path d="M72.6863 217.333V279.505C72.6863 283.386 76.9166 285.787 80.2493 283.798L162.189 234.878C163.701 233.976 164.626 232.345 164.626 230.585V168.414C164.626 164.532 160.396 162.131 157.063 164.12L75.1232 213.04C73.6118 213.943 72.6863 215.573 72.6863 217.333Z" stroke="#ECB22E" stroke-width="2" stroke-miterlimit="1.30541" stroke-linecap="round" stroke-linejoin="round"/>
<path d="M72.6863 217.333V279.505C72.6863 283.386 76.9166 285.787 80.2493 283.798L162.189 234.878C163.701 233.976 164.626 232.345 164.626 230.585V168.414C164.626 164.532 160.396 162.131 157.063 164.12L75.1232 213.04C73.6118 213.943 72.6863 215.573 72.6863 217.333Z" stroke="url(#paint30_linear)" stroke-width="2" stroke-miterlimit="1.30541" stroke-linecap="round" stroke-linejoin="round"/>
<path d="M73.299 217.597V280.116C73.299 284.003 77.5387 286.403 80.8713 284.404L162.811 235.243C164.317 234.339 165.239 232.712 165.239 230.955V168.436C165.239 164.549 160.999 162.149 157.667 164.148L75.7266 213.309C74.2205 214.213 73.299 215.84 73.299 217.597Z" fill="#515151"/>
<path fill-rule="evenodd" clip-rule="evenodd" d="M76.3599 287.05V291.483C76.359 291.91 76.5625 292.338 76.9707 292.583L134.286 326.672C134.375 326.718 134.462 326.763 134.548 326.809C135.65 327.389 136.564 327.871 138.27 326.989L225.923 274.826C226.331 274.582 226.536 274.157 226.536 273.73V269.292C226.536 269.718 226.331 270.144 225.923 270.388L224.051 271.506L223.161 272.037L138.27 322.551C136.431 323.502 136.125 323.502 134.899 322.868L78.8457 289.269L76.9707 288.144C76.5643 287.901 76.3607 287.476 76.3599 287.05Z" fill="#ECB22E"/>
<path fill-rule="evenodd" clip-rule="evenodd" d="M76.3599 287.05V291.483C76.359 291.91 76.5625 292.338 76.9707 292.583L134.286 326.672C134.375 326.718 134.462 326.763 134.548 326.809C135.65 327.389 136.564 327.871 138.27 326.989L225.923 274.826C226.331 274.582 226.536 274.157 226.536 273.73V269.292C226.536 269.718 226.331 270.144 225.923 270.388L224.051 271.506L223.161 272.037L138.27 322.551C136.431 323.502 136.125 323.502 134.899 322.868L78.8457 289.269L76.9707 288.144C76.5643 287.901 76.3607 287.476 76.3599 287.05Z" fill="url(#paint31_linear)"/>
<path fill-rule="evenodd" clip-rule="evenodd" d="M225.929 268.63L167.082 233.324C166.703 233.096 166.235 233.095 165.855 233.322L76.9767 286.386C76.5689 286.63 76.3645 287.056 76.3637 287.482V287.487C76.3645 287.913 76.5681 288.338 76.9745 288.582L78.8495 289.707L134.903 323.305C136.129 323.939 136.435 323.939 138.274 322.988L223.165 272.474L224.054 271.943L225.927 270.825C226.335 270.581 226.539 270.155 226.54 269.729C226.541 269.302 226.338 268.875 225.929 268.63Z" fill="#FFEEC2"/>
<path d="M175.659 269.292L138.27 291.483L160.336 305.432L197.725 283.241L175.659 269.292Z" fill="#FFDC84"/>
<path d="M159.161 167.717L77.9631 215.454C77.352 215.813 76.9767 216.469 76.9767 217.178L76.9767 278.477C76.9767 280.024 78.657 280.985 79.9903 280.201L161.188 232.464C161.799 232.105 162.174 231.449 162.174 230.74L162.174 169.441C162.174 167.895 160.494 166.933 159.161 167.717Z" fill="#020B2C"/>
<path d="M159.161 167.717L77.9631 215.454C77.352 215.813 76.9767 216.469 76.9767 217.178L76.9767 278.477C76.9767 280.024 78.657 280.985 79.9903 280.201L161.188 232.464C161.799 232.105 162.174 231.449 162.174 230.74L162.174 169.441C162.174 167.895 160.494 166.933 159.161 167.717Z" fill="url(#paint32_linear)"/>
<path d="M165.052 238.833L87.2155 285.003C85.9131 285.775 85.9084 287.659 87.2069 288.438L111.891 303.248C112.522 303.626 113.308 303.628 113.941 303.253L191.777 257.083C193.079 256.311 193.084 254.427 191.785 253.648L167.101 238.839C166.471 238.46 165.684 238.458 165.052 238.833Z" fill="#515151"/>
<path d="M102.72 270.56L108.236 194.407L124.173 184.966L118.656 261.12L102.72 270.56Z" fill="#696969" fill-opacity="0.18"/>
<path d="M138.576 249.32L144.092 172.309C144.092 172.309 147.727 170.424 152.98 167.213C159.723 163.092 164.32 161.19 164.626 164.36C164.933 167.53 165.546 230.933 164.933 232.835C164.32 234.738 156.352 238.225 138.576 249.32Z" fill="#696969" fill-opacity="0.18"/>
<path d="M36.6835 229.177C33.0501 231.338 36.72 238.351 64.1476 266.664C58.0817 245.892 53.8199 238.181 51.5341 234.833C46.5624 227.552 40.3169 227.016 36.6835 229.177Z" fill="#8BC677"/>
<path d="M63.5633 260.812C77.0456 249.471 79.0335 242.047 77.4662 240.429C76.2123 239.134 70.7614 239.222 63.5633 260.812Z" fill="#8BC677"/>
<path d="M64.7057 285.9C64.5719 285.762 64.4384 285.625 64.305 285.489C64.1205 285.742 63.9341 285.998 63.7458 286.255C63.7868 285.867 63.8291 285.465 63.8727 285.05C51.1623 272.233 40.2253 267.993 42.2411 262.71C44.3008 257.312 50.146 258.487 52.3727 259.196C58.6593 261.195 60.9584 275.133 63.9882 283.955C64.8387 275.918 66.1593 264.264 68.2722 260.584C72.7837 252.728 79.1703 253.562 80.7397 255.719C82.2862 257.845 80.3625 263.414 64.4621 285.273C64.5426 285.486 64.6238 285.695 64.7057 285.9Z" fill="#8BC677"/>
<path d="M49.074 280.917C54.7454 283.849 55.9381 287.359 65.5296 298.353C65.2878 290.084 67.6114 285.761 69.0782 282.175C71.3925 276.518 76.5976 275.964 77.6554 280.281C78.12 282.177 69.6446 294.057 65.5916 299.725C65.5692 299.357 65.5518 298.996 65.539 298.641C57.3713 295.59 42.2988 288.155 41.0738 285.584C39.6141 282.52 39.2162 281.685 42.8241 279.303C43.5171 279.122 45.7373 279.193 49.074 280.917Z" fill="#8BC677"/>
<path d="M71.4772 205.304C65.1926 213.617 57.5557 229.602 64.3448 243.853C67.9773 240.582 73.7538 232.448 76.4049 227.691C79.7189 221.744 77.0625 207.566 75.4304 204.14C74.0182 201.176 71.4772 205.304 71.4772 205.304Z" fill="#8BC677"/>
<path d="M65.3673 234.816C62.9662 259.883 63.5094 289.41 64.9516 299.319" stroke="#8BC677" stroke-width="3" stroke-linecap="round" stroke-linejoin="round"/>
<path d="M400.137 65.5757C405.182 68.6576 407.598 75.0898 406.597 85.0517C399.221 81.8667 394.061 73.0976 395.146 69.4647C395.896 66.9496 397.867 64.1888 400.137 65.5757Z" fill="#8BC677"/>
<path d="M404.241 128.035C409.104 129.111 412.793 134.063 414.732 143.315C407.985 142.925 401.47 136.797 401.335 133.183C401.242 130.681 402.053 127.552 404.241 128.035Z" fill="#8BC677"/>
<path d="M419.341 81.9343C422.734 87.0019 418.629 96.6976 411.347 98.9748C407.129 92.3151 410.513 82.1578 414.011 80.4608C416.363 79.3198 417.862 79.7242 419.341 81.9343Z" fill="#8BC677"/>
<path d="M428.28 126.042C430.228 131.763 422.821 139.982 415.092 140.189C412.766 132.735 419.593 123.884 423.469 123.212C426.075 122.761 427.431 123.547 428.28 126.042Z" fill="#8BC677"/>
<path d="M427.05 150.031C427.975 154.96 420.808 160.395 413.796 159.288C412.782 152.9 419.518 146.862 423.117 146.959C425.536 147.024 426.646 147.881 427.05 150.031Z" fill="#8BC677"/>
<path d="M405.368 146.474C410.299 147.474 413.428 156.293 410.404 162.481C404.066 161.01 400.243 152.368 401.349 149.013C402.093 146.758 403.217 146.037 405.368 146.474Z" fill="#8BC677"/>
<path d="M398.467 90.3921C403.907 89.6857 409.051 95.5373 411.402 103.847C406.282 105.014 395.933 99.7065 395.238 95.9539C394.748 93.3125 395.906 90.7247 398.467 90.3921Z" fill="#8BC677"/>
<path d="M401.893 109.464C407.333 108.757 412.478 114.609 414.828 122.919C409.709 124.086 399.359 118.778 398.664 115.026C398.174 112.384 399.332 109.796 401.893 109.464Z" fill="#8BC677"/>
<path d="M425.539 104.577C427.456 109.842 421.686 115.534 413.995 118.857C411.694 113.962 415.761 103.217 419.316 102.076C421.819 101.274 424.637 102.098 425.539 104.577Z" fill="#8BC677"/>
<path d="M404.793 81.3713C418.592 115.704 414.941 150.6 411.579 163.217" stroke="#8BC677" stroke-width="3" stroke-linecap="round" stroke-linejoin="round"/>
<path fill-rule="evenodd" clip-rule="evenodd" d="M392.547 282.503C391.92 282.14 391.145 282.144 390.522 282.515L356.832 302.553C355.52 303.334 355.531 305.238 356.852 306.003L376.405 317.33C377.032 317.693 377.807 317.688 378.43 317.318L412.12 297.279C413.433 296.499 413.422 294.595 412.1 293.83L392.547 282.503Z" fill="#020B2C"/>
<path fill-rule="evenodd" clip-rule="evenodd" d="M392.547 282.503C391.92 282.14 391.145 282.144 390.522 282.515L356.832 302.553C355.52 303.334 355.531 305.238 356.852 306.003L376.405 317.33C377.032 317.693 377.807 317.688 378.43 317.318L412.12 297.279C413.433 296.499 413.422 294.595 412.1 293.83L392.547 282.503Z" fill="url(#paint33_linear)"/>
<path fill-rule="evenodd" clip-rule="evenodd" d="M344.427 308.208L395.534 277.81C395.821 277.639 396.174 277.637 396.462 277.804L421.225 292.149C421.673 292.408 421.808 292.952 421.63 293.384L421.635 293.602L370.673 323.914C370.05 324.285 369.276 324.289 368.649 323.926L344.144 309.731V309.638C343.82 309.195 343.913 308.513 344.427 308.208ZM356.852 306.003C355.531 305.238 355.52 303.334 356.832 302.553L390.522 282.515C391.145 282.144 391.92 282.14 392.547 282.503L412.1 293.83C413.422 294.595 413.433 296.499 412.12 297.279L378.43 317.318C377.807 317.688 377.032 317.693 376.405 317.33L356.852 306.003Z" fill="#FFEEC2"/>
<path d="M421.264 298.367C421.564 298.189 421.745 297.855 421.736 297.498L421.635 293.602L370.673 323.914C370.05 324.285 369.276 324.289 368.649 323.926L344.144 309.731V312.349C344.144 313.217 344.59 314.018 345.315 314.453L368.489 328.37C369.216 328.807 370.114 328.809 370.843 328.375L421.264 298.367Z" fill="#ECB22E"/>
<path d="M421.264 298.367C421.564 298.189 421.745 297.855 421.736 297.498L421.635 293.602L370.673 323.914C370.05 324.285 369.276 324.289 368.649 323.926L344.144 309.731V312.349C344.144 313.217 344.59 314.018 345.315 314.453L368.489 328.37C369.216 328.807 370.114 328.809 370.843 328.375L421.264 298.367Z" fill="url(#paint34_linear)"/>
<path d="M408.157 289.09L400.609 284.753C400.304 284.577 400.314 284.133 400.627 283.971C400.761 283.901 400.922 283.905 401.053 283.98L408.601 288.318C408.906 288.494 408.897 288.938 408.584 289.1C408.449 289.169 408.288 289.166 408.157 289.09Z" fill="#515151"/>
<path d="M363.062 312.505C365.361 314.451 361.415 317.478 358.123 314.451C356.006 312.505 360.475 310.316 363.062 312.505Z" fill="#515151"/>
<path d="M312.009 240.676C307.145 243.335 311.643 252.711 346.343 291.172C339.323 263.633 334.08 253.314 331.233 248.812C325.04 239.021 316.872 238.017 312.009 240.676Z" fill="#6C9A5C"/>
<path d="M345.84 283.468C364.036 269.242 366.978 259.6 364.995 257.402C363.409 255.644 356.255 255.496 345.84 283.468Z" fill="#6C9A5C"/>
<path d="M346.208 316.43C346.039 316.242 345.87 316.056 345.701 315.871C345.447 316.194 345.191 316.521 344.933 316.85C345.004 316.342 345.078 315.816 345.154 315.275C329.059 297.85 314.905 291.761 317.787 284.929C320.732 277.948 328.346 279.771 331.235 280.807C339.391 283.734 341.778 302.126 345.355 313.844C346.832 303.343 349.09 288.12 352.027 283.396C358.299 273.309 366.638 274.71 368.6 277.616C370.532 280.479 367.758 287.69 345.917 315.595C346.013 315.879 346.11 316.157 346.208 316.43Z" fill="#6C9A5C"/>
<path d="M325.929 309.14C333.09 313.177 335.48 317.454 346.971 331.625C347.211 321.535 350.102 316.217 352.111 311.755C355.402 304.447 362.254 303.971 363.447 309.684C363.936 312.028 354.002 325.418 348.149 333.074C347.736 333.614 347.343 334.126 346.976 334.603C346.958 333.908 346.952 333.233 346.956 332.578C336.177 328.041 316.682 318.231 315.225 314.876C313.448 310.786 312.964 309.671 317.804 306.721C318.721 306.518 321.63 306.717 325.929 309.14Z" fill="#6C9A5C"/>
<path d="M358.723 211.041C350.105 221.642 339.367 242.24 347.63 261.26C352.542 257.145 360.485 246.755 364.177 240.643C368.792 233.003 365.947 214.278 363.96 209.705C362.242 205.749 358.723 211.041 358.723 211.041Z" fill="#6C9A5C"/>
<path d="M349.378 249.457C345.099 282.22 344.481 320.976 345.926 334.043" stroke="#6C9A5C" stroke-width="3" stroke-linecap="round" stroke-linejoin="round"/>
<path d="M263.196 258.232C263.196 255.771 264.985 253.439 268.106 251.694C271.211 249.958 275.533 248.869 280.335 248.869C285.136 248.869 289.459 249.958 292.563 251.694C295.684 253.439 297.474 255.771 297.474 258.232V287.688C296.212 289.874 293.973 291.807 291.158 293.271C288.3 294.756 284.879 295.74 281.369 296.013C274.38 296.555 267.136 294.28 263.196 287.683V258.232Z" stroke="black"/>
<path d="M297.974 258.232C297.974 263.679 290.076 268.094 280.335 268.094C270.593 268.094 262.696 263.679 262.696 258.232V287.82C270.8 301.628 292.73 297.189 297.974 287.82V258.232Z" fill="#ECB22E"/>
<path d="M297.974 258.232C297.974 263.679 290.076 268.094 280.335 268.094C270.593 268.094 262.696 263.679 262.696 258.232V287.82C270.8 301.628 292.73 297.189 297.974 287.82V258.232Z" fill="url(#paint35_linear)"/>
<path d="M280.335 268.094C290.076 268.094 297.974 263.679 297.974 258.232C297.974 252.785 290.076 248.369 280.335 248.369C270.593 248.369 262.696 252.785 262.696 258.232C262.696 263.679 270.593 268.094 280.335 268.094Z" fill="#FFDC84"/>
<path d="M266.033 261.191C273.184 254.287 288.916 255.273 294.636 260.697C293.206 264.149 276.044 269.574 266.033 261.191Z" fill="#020B2C"/>
<path d="M266.033 261.191C273.184 254.287 288.916 255.273 294.636 260.697C293.206 264.149 276.044 269.574 266.033 261.191Z" fill="url(#paint36_linear)"/>
<path fill-rule="evenodd" clip-rule="evenodd" d="M296.066 258.232C296.066 262.589 289.023 266.122 280.335 266.122C271.646 266.122 264.603 262.589 264.603 258.232C264.603 253.874 271.646 250.342 280.335 250.342C289.023 250.342 296.066 253.874 296.066 258.232ZM266.033 261.191C273.184 254.287 288.916 255.273 294.636 260.697C293.206 264.149 276.044 269.574 266.033 261.191Z" fill="#ECB22E"/>
<path fill-rule="evenodd" clip-rule="evenodd" d="M296.066 258.232C296.066 262.589 289.023 266.122 280.335 266.122C271.646 266.122 264.603 262.589 264.603 258.232C264.603 253.874 271.646 250.342 280.335 250.342C289.023 250.342 296.066 253.874 296.066 258.232ZM266.033 261.191C273.184 254.287 288.916 255.273 294.636 260.697C293.206 264.149 276.044 269.574 266.033 261.191Z" fill="url(#paint37_linear)"/>
<path fill-rule="evenodd" clip-rule="evenodd" d="M293.206 287.327V290.779C295.007 291.4 296.518 291.678 297.811 291.523C298.572 291.432 299.257 291.19 299.88 290.779C305.443 287.112 304.551 273.464 293.206 265.136V269.081C301.091 274.505 304.171 292.751 293.206 287.327Z" fill="#ECB22E"/>
<path fill-rule="evenodd" clip-rule="evenodd" d="M293.206 287.327V290.779C295.007 291.4 296.518 291.678 297.811 291.523C298.572 291.432 299.257 291.19 299.88 290.779C305.443 287.112 304.551 273.464 293.206 265.136V269.081C301.091 274.505 304.171 292.751 293.206 287.327Z" fill="url(#paint38_linear)"/>
<path d="M293.206 287.327C295.406 288.415 297.04 288.551 298.184 288.028C298.781 287.742 299.111 287.329 299.313 287.122C299.313 287.122 298.45 287.327 295.59 285.847L293.206 287.327Z" fill="#FFDC84"/>
<path d="M293.206 287.327C295.406 288.415 297.04 288.551 298.184 288.028C298.781 287.742 299.111 287.329 299.313 287.122C299.313 287.122 298.45 287.327 295.59 285.847L293.206 287.327Z" fill="url(#paint39_linear)"/>
<path fill-rule="evenodd" clip-rule="evenodd" d="M299.313 287.122C299.313 287.122 299.313 287.122 299.313 287.122V287.122ZM293.206 287.327C295.406 288.415 297.04 288.551 298.184 288.028C297.286 288.459 295.784 288.602 293.206 287.327Z" fill="#FFDC84"/>
<path fill-rule="evenodd" clip-rule="evenodd" d="M299.313 287.122C299.313 287.122 299.313 287.122 299.313 287.122V287.122ZM293.206 287.327C295.406 288.415 297.04 288.551 298.184 288.028C297.286 288.459 295.784 288.602 293.206 287.327Z" fill="url(#paint40_linear)"/>
<path fill-rule="evenodd" clip-rule="evenodd" d="M295.59 263.163L293.206 265.136C304.551 273.464 305.443 287.112 299.88 290.779C299.257 291.19 298.572 291.432 297.811 291.523C301.311 291.272 305.601 288.936 305.601 280.423C305.601 274.012 299.404 265.136 295.59 263.163Z" fill="#FFDC84"/>
<path fill-rule="evenodd" clip-rule="evenodd" d="M320.332 193.168L368.605 165.311C372.432 166.222 373.964 170.977 373.508 172.92L325.236 200.777C326.462 199.192 324.01 192.534 320.332 193.168ZM312.364 204.264L312.385 204.258C312.334 204.333 312.333 204.329 312.364 204.264Z" fill="#ECB22E"/>
<path fill-rule="evenodd" clip-rule="evenodd" d="M320.332 193.168L368.605 165.311C372.432 166.222 373.964 170.977 373.508 172.92L325.236 200.777C326.462 199.192 324.01 192.534 320.332 193.168ZM312.364 204.264L312.385 204.258C312.334 204.333 312.333 204.329 312.364 204.264Z" fill="url(#paint41_linear)"/>
<path fill-rule="evenodd" clip-rule="evenodd" d="M325.236 200.777C326.462 199.192 324.01 192.534 320.332 193.168C317.611 196.808 315.77 199.36 314.549 201.094C315.989 201.855 316.144 202.86 316.042 203.268L325.236 200.777ZM312.364 204.264L312.385 204.258C312.334 204.333 312.333 204.329 312.364 204.264Z" fill="#FFEEC2"/>
<path fill-rule="evenodd" clip-rule="evenodd" d="M312.364 204.264L312.385 204.258C312.334 204.333 312.333 204.329 312.364 204.264Z" fill="#020B2C"/>
<path d="M316.042 203.268C316.144 202.86 315.989 201.855 314.549 201.094C313.115 203.129 312.534 204.038 312.385 204.258L316.042 203.268Z" fill="#020B2C"/>
<path d="M66.7953 105.991C76.568 103.538 86.5903 84.7049 82.3347 79.1946C77.9072 82.3499 70.4398 89.5942 66.7953 105.991Z" fill="#6C9A5C"/>
<path d="M67.2529 92.367C72.5819 86.8775 76.6816 70.2467 72.1083 67.9276C69.8924 71.5467 65.1301 80.0231 67.2529 92.367Z" fill="#6C9A5C"/>
<path d="M66.1531 134.966C77.3058 130.103 80.1295 107.692 81.4801 100.923C71.5794 107.635 64.9621 116.269 66.1531 134.966Z" fill="#6C9A5C"/>
<path d="M63.8188 115.885C64.8868 98.3206 58.6632 93.7453 56.2227 89.114C54.9393 91.9945 54.121 105.573 63.8188 115.885Z" fill="#6C9A5C"/>
<path d="M61.5918 122.693C60.6966 113.262 55.9302 110.571 53.7962 107.987C53.1702 109.494 53.8674 116.785 61.5918 122.693Z" fill="#6C9A5C"/>
<path d="M62.4476 136.683C58.5124 116.891 47.7257 112.218 42.601 107.201C41.5824 110.529 44.6355 125.828 62.4476 136.683Z" fill="#6C9A5C"/>
<path d="M71.154 166.896C82.3295 149.995 78.4498 139.899 78.4647 132.568C75.4384 134.169 66.5956 146.067 71.154 166.896Z" fill="#6C9A5C"/>
<path d="M65.7576 165.064C61.7631 141.947 49.0382 135.897 43.0928 129.79C41.7562 133.576 44.8573 151.447 65.7576 165.064Z" fill="#6C9A5C"/>
<path d="M67.2529 92.367C72.5819 86.8775 76.6816 70.2467 72.1083 67.9276C69.8924 71.5467 65.1301 80.0231 67.2529 92.367ZM67.2529 92.367C66.2697 99.4522 65.9272 109.95 65.9636 121.517M63.8188 115.885C64.8868 98.3206 58.6632 93.7453 56.2227 89.114C54.9393 91.9945 54.121 105.573 63.8188 115.885ZM63.8188 115.885C65.5326 118.962 65.9627 120.922 65.9636 121.517M61.5918 122.693C60.6966 113.262 55.9302 110.571 53.7962 107.987C53.1702 109.494 53.8674 116.785 61.5918 122.693ZM61.5918 122.693C65.1361 127.029 66.0387 129.188 66.047 129.726M62.4476 136.683C58.5124 116.891 47.7257 112.218 42.601 107.201C41.5824 110.529 44.6355 125.828 62.4476 136.683ZM62.4476 136.683C65.6273 142.686 66.516 146.765 66.5628 148.053M71.154 166.896C82.3295 149.995 78.4498 139.899 78.4647 132.568C75.4384 134.169 66.5956 146.067 71.154 166.896ZM71.154 166.896C68.2228 169.413 67.4385 166.787 67.5179 168.071M65.7576 165.064C61.7631 141.947 49.0382 135.897 43.0928 129.79C41.7562 133.576 44.8573 151.447 65.7576 165.064ZM65.7576 165.064C67.1545 167.269 67.5592 168.79 67.587 169.275M67.5179 168.071C67.6741 170.519 67.3717 166.049 67.5179 168.071ZM67.5179 168.071C67.4011 166.24 67.7045 171.3 67.587 169.275M67.587 169.275C67.2157 162.874 66.8518 155.599 66.5628 148.053M66.5628 148.053C66.3315 142.014 66.148 135.802 66.047 129.726M66.047 129.726C66.0009 126.951 65.972 124.205 65.9636 121.517M66.7953 105.991C76.568 103.538 86.5903 84.7049 82.3347 79.1946C77.9072 82.3499 70.4398 89.5942 66.7953 105.991ZM66.1531 134.966C77.3058 130.103 80.1295 107.692 81.4801 100.923C71.5794 107.635 64.9621 116.269 66.1531 134.966Z" stroke="#6C9A5C" stroke-width="2" stroke-linecap="round" stroke-linejoin="round"/>
<path fill-rule="evenodd" clip-rule="evenodd" d="M52.0953 177.662L132.831 129.904L24.1409 63.5197L24.1409 160.588L52.0953 177.662Z" fill="white" fill-opacity="0.15"/>
<path d="M19.9739 293.732L120.98 355.423L120.98 258.354L100.459 245.821L19.974 196.663L19.9739 293.732Z" fill="white" fill-opacity="0.15"/>
<path d="M233.487 191.381L120.98 258.354L120.98 355.423L225.715 293.077L233.487 288.45V191.381Z" fill="white" fill-opacity="0.15"/>
<path d="M347.361 260.931L233.487 191.381V288.45L239.921 292.379L347.361 358L347.361 260.931Z" fill="white" fill-opacity="0.15"/>
<path d="M347.361 358L449.027 297.48L449.027 200.412L368.542 248.323L347.361 260.931L347.361 358Z" fill="white" fill-opacity="0.15"/>
<path d="M446.313 161.76L446.313 64.6911M120.98 355.423L19.9739 293.732L19.974 196.663M120.98 355.423L120.98 258.354M120.98 355.423L225.715 293.077L233.487 288.45M347.361 358L449.027 297.48L449.027 200.412M347.361 358L347.361 260.931M347.361 358L239.921 292.379L233.487 288.45M24.1409 63.5197L125.807 3L234.813 69.5768L347.36 3C357.222 9.02297 364.403 13.7229 371.585 18.4228C378.767 23.1227 385.948 27.8226 395.81 33.8455L446.313 64.6911M24.1409 63.5197L24.1409 160.588L52.0953 177.662M24.1409 63.5197L132.831 129.904L52.0953 177.662M233.487 191.381L347.361 260.931M233.487 191.381L120.98 258.354M233.487 191.381V288.45M347.361 260.931L368.542 248.323L449.027 200.412M335.154 130.862C335.154 160.005 335.154 220.22 335.154 227.93M335.154 130.862L365.827 112.602L446.313 64.6911M335.154 130.862L415.639 180.019L449.027 200.412M19.974 196.663L100.459 245.821L120.98 258.354M19.974 196.663L52.0953 177.662" stroke="white" stroke-width="6" stroke-linecap="round" stroke-linejoin="round"/>
<line y1="-3" x2="9.51053" y2="-3" transform="matrix(-0.0039845 -0.999992 0.999991 -0.00426348 134.635 139.95)" stroke="white" stroke-width="6"/>
<defs>
<linearGradient id="paint0_linear" x1="303.762" y1="98.7383" x2="361.638" y2="113.916" gradientUnits="userSpaceOnUse">
<stop stop-color="white"/>
<stop offset="1" stop-color="white" stop-opacity="0"/>
</linearGradient>
<linearGradient id="paint1_linear" x1="286.907" y1="151.363" x2="335.197" y2="162.662" gradientUnits="userSpaceOnUse">
<stop stop-color="white"/>
<stop offset="1" stop-color="white" stop-opacity="0"/>
</linearGradient>
<linearGradient id="paint2_linear" x1="286.907" y1="151.363" x2="335.197" y2="162.662" gradientUnits="userSpaceOnUse">
<stop stop-color="white"/>
<stop offset="1" stop-color="white" stop-opacity="0"/>
</linearGradient>
<linearGradient id="paint3_linear" x1="290.891" y1="92.715" x2="329.445" y2="127.237" gradientUnits="userSpaceOnUse">
<stop stop-color="white"/>
<stop offset="1" stop-color="white" stop-opacity="0"/>
</linearGradient>
<linearGradient id="paint4_linear" x1="312.343" y1="57.5265" x2="330.247" y2="107.876" gradientUnits="userSpaceOnUse">
<stop stop-color="white"/>
<stop offset="0.393222" stop-color="#0E9824"/>
<stop offset="0.627799" stop-color="#0B7D1D"/>
</linearGradient>
<linearGradient id="paint5_linear" x1="323.376" y1="57.5265" x2="323.376" y2="114.743" gradientUnits="userSpaceOnUse">
<stop stop-color="white"/>
<stop offset="0.655206" stop-color="white" stop-opacity="0"/>
</linearGradient>
<linearGradient id="paint6_linear" x1="331.957" y1="60.3795" x2="338.611" y2="66.8117" gradientUnits="userSpaceOnUse">
<stop stop-color="white"/>
<stop offset="1" stop-color="white" stop-opacity="0"/>
</linearGradient>
<linearGradient id="paint7_linear" x1="318.166" y1="67.671" x2="319.477" y2="81.2944" gradientUnits="userSpaceOnUse">
<stop stop-color="white"/>
<stop offset="1" stop-color="white" stop-opacity="0"/>
</linearGradient>
<linearGradient id="paint8_linear" x1="205.693" y1="133.61" x2="194.575" y2="186.086" gradientUnits="userSpaceOnUse">
<stop stop-color="white"/>
<stop offset="1" stop-color="white" stop-opacity="0"/>
</linearGradient>
<linearGradient id="paint9_linear" x1="205.693" y1="133.61" x2="194.575" y2="186.086" gradientUnits="userSpaceOnUse">
<stop stop-color="white"/>
<stop offset="1" stop-color="white" stop-opacity="0"/>
</linearGradient>
<linearGradient id="paint10_linear" x1="205.693" y1="133.61" x2="194.575" y2="186.086" gradientUnits="userSpaceOnUse">
<stop stop-color="white"/>
<stop offset="1" stop-color="white" stop-opacity="0"/>
</linearGradient>
<linearGradient id="paint11_linear" x1="205.693" y1="133.61" x2="194.575" y2="186.086" gradientUnits="userSpaceOnUse">
<stop stop-color="white"/>
<stop offset="1" stop-color="white" stop-opacity="0"/>
</linearGradient>
<linearGradient id="paint12_linear" x1="205.693" y1="133.61" x2="194.575" y2="186.086" gradientUnits="userSpaceOnUse">
<stop stop-color="white"/>
<stop offset="1" stop-color="white" stop-opacity="0"/>
</linearGradient>
<linearGradient id="paint13_linear" x1="205.693" y1="133.61" x2="194.575" y2="186.086" gradientUnits="userSpaceOnUse">
<stop stop-color="white"/>
<stop offset="1" stop-color="white" stop-opacity="0"/>
</linearGradient>
<linearGradient id="paint14_linear" x1="205.693" y1="133.61" x2="194.575" y2="186.086" gradientUnits="userSpaceOnUse">
<stop stop-color="white"/>
<stop offset="1" stop-color="white" stop-opacity="0"/>
</linearGradient>
<linearGradient id="paint15_linear" x1="212.129" y1="127.27" x2="197.91" y2="153.823" gradientUnits="userSpaceOnUse">
<stop stop-color="white"/>
<stop offset="0.418525" stop-color="white" stop-opacity="0.513738"/>
<stop offset="0.924847" stop-color="white" stop-opacity="0"/>
</linearGradient>
<linearGradient id="paint16_linear" x1="212.129" y1="127.27" x2="197.91" y2="153.823" gradientUnits="userSpaceOnUse">
<stop stop-color="white"/>
<stop offset="0.418525" stop-color="white" stop-opacity="0.513738"/>
<stop offset="0.924847" stop-color="white" stop-opacity="0"/>
</linearGradient>
<linearGradient id="paint17_linear" x1="212.129" y1="127.27" x2="197.91" y2="153.823" gradientUnits="userSpaceOnUse">
<stop stop-color="white"/>
<stop offset="0.418525" stop-color="white" stop-opacity="0.513738"/>
<stop offset="0.924847" stop-color="white" stop-opacity="0"/>
</linearGradient>
<linearGradient id="paint18_linear" x1="212.129" y1="127.27" x2="197.91" y2="153.823" gradientUnits="userSpaceOnUse">
<stop stop-color="white"/>
<stop offset="0.418525" stop-color="white" stop-opacity="0.513738"/>
<stop offset="0.924847" stop-color="white" stop-opacity="0"/>
</linearGradient>
<linearGradient id="paint19_linear" x1="212.129" y1="127.27" x2="197.91" y2="153.823" gradientUnits="userSpaceOnUse">
<stop stop-color="white"/>
<stop offset="0.418525" stop-color="white" stop-opacity="0.513738"/>
<stop offset="0.924847" stop-color="white" stop-opacity="0"/>
</linearGradient>
<linearGradient id="paint20_linear" x1="212.129" y1="127.27" x2="197.91" y2="153.823" gradientUnits="userSpaceOnUse">
<stop stop-color="white"/>
<stop offset="0.418525" stop-color="white" stop-opacity="0.513738"/>
<stop offset="0.924847" stop-color="white" stop-opacity="0"/>
</linearGradient>
<linearGradient id="paint21_linear" x1="212.129" y1="127.27" x2="197.91" y2="153.823" gradientUnits="userSpaceOnUse">
<stop stop-color="white"/>
<stop offset="0.418525" stop-color="white" stop-opacity="0.513738"/>
<stop offset="0.924847" stop-color="white" stop-opacity="0"/>
</linearGradient>
<linearGradient id="paint22_linear" x1="212.129" y1="127.27" x2="197.91" y2="153.823" gradientUnits="userSpaceOnUse">
<stop stop-color="white"/>
<stop offset="0.418525" stop-color="white" stop-opacity="0.513738"/>
<stop offset="0.924847" stop-color="white" stop-opacity="0"/>
</linearGradient>
<linearGradient id="paint23_linear" x1="212.129" y1="127.27" x2="197.91" y2="153.823" gradientUnits="userSpaceOnUse">
<stop stop-color="white"/>
<stop offset="0.418525" stop-color="white" stop-opacity="0.513738"/>
<stop offset="0.924847" stop-color="white" stop-opacity="0"/>
</linearGradient>
<linearGradient id="paint24_linear" x1="212.129" y1="127.27" x2="197.91" y2="153.823" gradientUnits="userSpaceOnUse">
<stop stop-color="white"/>
<stop offset="0.418525" stop-color="white" stop-opacity="0.513738"/>
<stop offset="0.924847" stop-color="white" stop-opacity="0"/>
</linearGradient>
<linearGradient id="paint25_linear" x1="212.129" y1="127.27" x2="197.91" y2="153.823" gradientUnits="userSpaceOnUse">
<stop stop-color="white"/>
<stop offset="0.418525" stop-color="white" stop-opacity="0.513738"/>
<stop offset="0.924847" stop-color="white" stop-opacity="0"/>
</linearGradient>
<linearGradient id="paint26_linear" x1="212.129" y1="127.27" x2="197.91" y2="153.823" gradientUnits="userSpaceOnUse">
<stop stop-color="white"/>
<stop offset="0.418525" stop-color="white" stop-opacity="0.513738"/>
<stop offset="0.924847" stop-color="white" stop-opacity="0"/>
</linearGradient>
<linearGradient id="paint27_linear" x1="212.129" y1="127.27" x2="197.91" y2="153.823" gradientUnits="userSpaceOnUse">
<stop stop-color="white"/>
<stop offset="0.418525" stop-color="white" stop-opacity="0.513738"/>
<stop offset="0.924847" stop-color="white" stop-opacity="0"/>
</linearGradient>
<linearGradient id="paint28_linear" x1="212.129" y1="127.27" x2="197.91" y2="153.823" gradientUnits="userSpaceOnUse">
<stop stop-color="white"/>
<stop offset="0.418525" stop-color="white" stop-opacity="0.513738"/>
<stop offset="0.924847" stop-color="white" stop-opacity="0"/>
</linearGradient>
<linearGradient id="paint29_linear" x1="212.129" y1="127.27" x2="197.91" y2="153.823" gradientUnits="userSpaceOnUse">
<stop stop-color="white"/>
<stop offset="0.418525" stop-color="white" stop-opacity="0.513738"/>
<stop offset="0.924847" stop-color="white" stop-opacity="0"/>
</linearGradient>
<linearGradient id="paint30_linear" x1="118.656" y1="159.605" x2="118.656" y2="288.313" gradientUnits="userSpaceOnUse">
<stop stop-color="white"/>
<stop offset="1" stop-color="white" stop-opacity="0"/>
</linearGradient>
<linearGradient id="paint31_linear" x1="71.4603" y1="292.434" x2="226.547" y2="286.804" gradientUnits="userSpaceOnUse">
<stop stop-color="white"/>
<stop offset="1" stop-color="white" stop-opacity="0"/>
</linearGradient>
<linearGradient id="paint32_linear" x1="225.307" y1="108.883" x2="103.479" y2="278.106" gradientUnits="userSpaceOnUse">
<stop stop-color="white"/>
<stop offset="0.901633" stop-color="white" stop-opacity="0"/>
</linearGradient>
<linearGradient id="paint33_linear" x1="357.7" y1="242.346" x2="397.683" y2="310.612" gradientUnits="userSpaceOnUse">
<stop stop-color="white"/>
<stop offset="1" stop-color="white" stop-opacity="0"/>
</linearGradient>
<linearGradient id="paint34_linear" x1="382.831" y1="277.534" x2="379.457" y2="336.149" gradientUnits="userSpaceOnUse">
<stop offset="0.186272" stop-color="white"/>
<stop offset="1" stop-color="white" stop-opacity="0"/>
</linearGradient>
<linearGradient id="paint35_linear" x1="246.76" y1="270.243" x2="285.001" y2="289.78" gradientUnits="userSpaceOnUse">
<stop offset="0.189369" stop-color="white"/>
<stop offset="1" stop-color="white" stop-opacity="0"/>
</linearGradient>
<linearGradient id="paint36_linear" x1="278.325" y1="236.323" x2="290.665" y2="265.832" gradientUnits="userSpaceOnUse">
<stop stop-color="white"/>
<stop offset="0.0001" stop-color="white" stop-opacity="0.84375"/>
<stop offset="1" stop-color="white" stop-opacity="0"/>
</linearGradient>
<linearGradient id="paint37_linear" x1="299.88" y1="246.89" x2="293.809" y2="263.031" gradientUnits="userSpaceOnUse">
<stop stop-color="white"/>
<stop offset="1" stop-color="white" stop-opacity="0"/>
</linearGradient>
<linearGradient id="paint38_linear" x1="299.472" y1="257.246" x2="286.937" y2="276.198" gradientUnits="userSpaceOnUse">
<stop stop-color="white"/>
<stop offset="1" stop-color="white" stop-opacity="0"/>
</linearGradient>
<linearGradient id="paint39_linear" x1="288.439" y1="262.177" x2="291.498" y2="294.705" gradientUnits="userSpaceOnUse">
<stop stop-color="white"/>
<stop offset="1" stop-color="white" stop-opacity="0"/>
</linearGradient>
<linearGradient id="paint40_linear" x1="288.439" y1="262.177" x2="291.498" y2="294.705" gradientUnits="userSpaceOnUse">
<stop stop-color="white"/>
<stop offset="1" stop-color="white" stop-opacity="0"/>
</linearGradient>
<linearGradient id="paint41_linear" x1="345.135" y1="170.067" x2="354.498" y2="186.921" gradientUnits="userSpaceOnUse">
<stop stop-color="white"/>
<stop offset="1" stop-color="white" stop-opacity="0"/>
</linearGradient>
</defs>
</svg>
