<svg width="456" height="554" viewBox="0 0 456 554" fill="none" xmlns="http://www.w3.org/2000/svg">
<path d="M317.474 295.458C326.227 303.736 311.419 320.221 216.389 378.309C246.822 326.256 263.056 308.318 271.617 300.807C290.238 284.469 308.722 287.181 317.474 295.458Z" fill="#437432"/>
<path d="M218.428 362.365C188.106 322.672 187.368 301.277 192.799 297.958C197.143 295.303 212.321 299.198 218.428 362.365Z" fill="#437432"/>
<path d="M280.934 381.628C283.187 397.595 248.352 401.544 203.099 429.205C218.19 408.418 233.139 367.342 253.465 366.067C260.148 365.648 278.68 365.662 280.934 381.628Z" fill="#437432"/>
<path d="M174.855 337.129C169.068 341.905 170.97 358.658 202.535 431.041C205.336 409.094 211.997 371.648 208.126 359.147C200.615 334.893 180.641 332.353 174.855 337.129Z" fill="#437432"/>
<path d="M248.588 426.972C230.61 431.137 228.02 439.59 192.915 463.526C217.41 460.942 267.538 451.942 272.706 445.726C278.774 438.427 275.641 435.662 267.104 426.804C265.284 425.852 259.033 424.552 248.588 426.972Z" fill="#437432"/>
<path d="M191.863 416.942C193.731 428.189 199.158 442.052 191.649 466.464C184 448.427 168.502 410.783 171.031 405.972C176.789 395.02 189.065 400.104 191.863 416.942Z" fill="#437432"/>
<path d="M235.041 207.635C247.211 234.314 257.105 282.681 228.882 316.629C220.853 305.353 209.986 279.5 205.664 264.867C200.261 246.575 217.963 209.998 224.748 201.837C230.618 194.775 235.041 207.635 235.041 207.635Z" fill="#437432"/>
<path d="M313.087 291.889C321.849 300.156 307.062 316.659 212.102 374.863C242.472 322.773 258.684 304.815 267.236 297.293C285.837 280.933 304.324 283.622 313.087 291.889Z" stroke="#020B2C" stroke-width="4"/>
<path d="M214.122 358.916C183.752 319.26 182.988 297.867 188.414 294.541C192.755 291.88 207.938 295.757 214.122 358.916Z" stroke="#020B2C" stroke-width="4"/>
<path d="M276.651 378.103C278.924 394.068 244.094 398.059 198.875 425.776C213.94 404.97 228.839 363.875 249.163 362.576C255.846 362.149 274.378 362.139 276.651 378.103Z" stroke="#020B2C" stroke-width="4"/>
<path d="M170.518 333.734C164.737 338.517 166.66 355.267 198.313 427.612C201.087 405.661 207.703 368.207 203.816 355.711C196.275 331.466 176.299 328.95 170.518 333.734Z" stroke="#020B2C" stroke-width="4"/>
<path d="M244.361 423.486C226.388 427.674 223.808 436.13 188.733 460.109C213.225 457.495 263.341 448.433 268.501 442.211C274.561 434.904 271.425 432.143 262.876 423.296C261.055 422.346 254.803 421.053 244.361 423.486Z" stroke="#020B2C" stroke-width="4"/>
<path d="M187.623 413.526C189.505 424.771 194.949 438.627 187.47 463.049C179.799 445.02 164.256 407.396 166.779 402.582C172.523 391.622 184.805 396.692 187.623 413.526Z" stroke="#020B2C" stroke-width="4"/>
<path d="M230.546 204.167C242.749 230.831 252.702 279.186 224.521 313.168C216.477 301.902 205.579 276.062 201.238 261.434C195.813 243.149 213.471 206.55 220.246 198.381C226.108 191.312 230.546 204.167 230.546 204.167Z" stroke="#020B2C" stroke-width="4"/>
<path d="M160.178 265.861C154.278 276.364 134.687 266.01 55.2322 187.958C113.123 204.82 134.471 216.204 143.839 222.681C164.214 236.77 166.079 255.358 160.178 265.861Z" stroke="#020B2C" stroke-width="4"/>
<path d="M71.1937 186.059C102.322 146.995 122.894 141.076 127.434 145.536C131.066 149.104 130.979 164.774 71.1937 186.059Z" stroke="#020B2C" stroke-width="4"/>
<path d="M67.7089 251.373C52.7695 257.442 40.4674 224.612 2.63198 187.445C26.4646 197.027 69.9437 201.538 76.1226 220.944C78.1542 227.324 82.6483 245.304 67.7089 251.373Z" stroke="#020B2C" stroke-width="4"/>
<path d="M85.0759 137.657C79.0361 133.205 63.2483 139.124 0.714336 187.344C22.6839 184.724 60.6256 182.078 71.8093 175.284C93.5088 162.1 91.1157 142.108 85.0759 137.657Z" stroke="#020B2C" stroke-width="4"/>
<path d="M15.8609 231.025C7.44843 214.6 -1.38087 214.143 -33.1348 185.913C-24.6719 209.044 -3.75155 255.478 3.53504 258.979C12.0906 263.09 14.0106 259.379 20.5262 248.944C21.0075 246.947 20.7484 240.568 15.8609 231.025Z" stroke="#020B2C" stroke-width="4"/>
<path d="M11.7943 173.563C1.33948 178.111 -10.7876 186.746 -36.2931 185.399C-20.6573 173.593 12.0876 149.407 17.3691 150.69C29.393 153.611 27.4464 166.755 11.7943 173.563Z" stroke="#020B2C" stroke-width="4"/>
<path d="M225.318 164.545C202.4 182.838 157.891 204.197 118.099 185.077C127.083 174.546 149.517 157.719 162.661 149.968C179.09 140.278 218.873 148.554 228.44 153.151C236.717 157.128 225.318 164.545 225.318 164.545Z" stroke="#020B2C" stroke-width="4"/>
<path d="M122.945 183.238C53.4945 191.948 -28.565 192.52 -56.1978 189.092" stroke="#020B2C" stroke-width="4" stroke-linecap="round" stroke-linejoin="round"/>
</svg>
