<svg width="451" height="615" viewBox="0 0 451 615" fill="none" xmlns="http://www.w3.org/2000/svg">
<path d="M220.375 377.657C219.319 365.657 241.335 363.148 350.976 382.738C293.67 401.491 269.622 404.142 258.233 404.081C233.462 403.951 221.432 389.658 220.375 377.657Z" stroke="#020B2C" stroke-width="4"/>
<path d="M338.872 393.315C335.222 443.131 321.58 459.627 315.315 458.508C310.302 457.612 301.531 444.627 338.872 393.315Z" stroke="#020B2C" stroke-width="4"/>
<path d="M304.887 337.43C313.794 323.989 342.478 344.147 394.688 353.476C369.606 359.016 331.167 379.831 315.115 367.298C309.836 363.178 295.979 350.872 304.887 337.43Z" stroke="#020B2C" stroke-width="4"/>
<path d="M354.729 441.106C362.227 441.372 371.92 427.576 396.328 352.477C379.671 367.039 349.842 390.636 344.445 402.557C333.972 425.688 347.231 440.84 354.729 441.106Z" stroke="#020B2C" stroke-width="4"/>
<path d="M359.172 324.966C375.387 333.777 382.933 329.171 425.079 334.554C405.038 320.235 361.562 293.711 353.571 294.933C344.188 296.368 344.697 300.514 345.208 312.806C345.938 314.726 349.752 319.846 359.172 324.966Z" stroke="#020B2C" stroke-width="4"/>
<path d="M394.959 370.106C401.024 360.452 406.161 346.479 427.977 333.196C421.732 351.767 408.351 390.213 403.267 392.135C391.692 396.51 385.881 384.56 394.959 370.106Z" stroke="#020B2C" stroke-width="4"/>
<path d="M223.781 498.059C232.377 470.023 257.065 427.271 300.705 420.597C299.231 434.361 290.209 460.914 283.734 474.731C275.64 492.001 238.127 507.623 227.636 509.227C218.558 510.615 223.781 498.059 223.781 498.059Z" stroke="#020B2C" stroke-width="4"/>
<path d="M297.741 424.851C350.159 378.464 417.577 331.679 442.323 318.914" stroke="#020B2C" stroke-width="4" stroke-linecap="round" stroke-linejoin="round"/>
<path d="M265.389 257.706C239.338 240.541 176.915 257.18 173.864 278.46C190.139 281.947 221.796 283.793 265.389 257.706Z" fill="#437432"/>
<path d="M234.609 285.251C211.318 284.604 166.248 310.144 170.853 325.452C183.462 322.916 212.09 316.001 234.609 285.251Z" fill="#437432"/>
<path d="M330.155 198.366C295.908 183.11 240.891 223.692 223.221 234.813C258.862 243.333 291.76 240.323 330.155 198.366Z" fill="#437432"/>
<path d="M293.341 243.737C252.645 278.159 255.805 301.969 250.836 317.26C259.855 314.145 291.3 287.52 293.341 243.737Z" fill="#437432"/>
<path d="M312.952 234.535C294.208 256.371 298.409 272.899 297.27 283.195C301.892 281.462 316.372 264.569 312.952 234.535Z" fill="#437432"/>
<path d="M341.754 203.223C306.773 253.742 319.376 288.176 319.244 310.405C328.682 305.746 355.7 266.67 341.754 203.223Z" fill="#437432"/>
<path d="M391.564 116.995C330.928 126.947 314.924 159.939 298.849 175.291C308.757 178.841 355.632 171.113 391.564 116.995Z" fill="#437432"/>
<path d="M396.854 136.108C354.721 193.741 368.415 235.488 367.634 261.877C378.749 256.983 411.291 212.401 396.854 136.108Z" fill="#437432"/>
<path d="M234.808 291.552C211.517 290.906 166.448 316.446 171.052 331.754C183.661 329.218 212.289 322.303 234.808 291.552ZM234.808 291.552C252.393 278.929 276.091 257.68 301.325 233.324M293.54 250.039C252.844 284.461 256.004 308.271 251.035 323.562C260.055 320.447 291.499 293.821 293.54 250.039ZM293.54 250.039C296.647 239.669 300.024 234.575 301.325 233.324M313.151 240.837C294.407 262.673 298.608 279.201 297.469 289.497C302.092 287.764 316.571 270.871 313.151 240.837ZM313.151 240.837C315.137 223.647 317.952 217.055 319.111 215.907M341.954 209.525C306.972 260.044 319.575 294.478 319.443 316.706C328.881 312.048 355.899 272.971 341.954 209.525ZM341.954 209.525C348.359 189.668 355.404 179.081 358.125 176.269M391.763 123.297C331.127 133.249 315.123 166.241 299.048 181.593C308.956 185.143 355.831 177.415 391.763 123.297ZM391.763 123.297C403.474 124.707 411.685 119.31 414.326 116.435M397.053 142.41C354.92 200.043 368.614 241.79 367.833 268.179C378.948 263.285 411.491 218.703 397.053 142.41ZM397.053 142.41C398.921 134.594 401.393 130.477 402.395 129.396M428.083 101.275C423.968 105.851 419.353 110.94 414.326 116.435M414.326 116.435C410.567 120.544 406.577 124.879 402.395 129.396M402.395 129.396C389.174 143.677 374.024 159.775 358.125 176.269M358.125 176.269C345.4 189.47 332.194 202.925 319.111 215.907M319.111 215.907C313.138 221.834 307.19 227.663 301.325 233.324M265.588 264.008C239.538 246.843 177.114 263.482 174.063 284.762C190.339 288.249 221.996 290.095 265.588 264.008ZM330.354 204.668C296.107 189.412 241.09 229.994 223.42 241.115C259.061 249.635 291.959 246.625 330.354 204.668Z" stroke="#020B2C" stroke-width="4" stroke-linecap="round" stroke-linejoin="round"/>
</svg>
