<svg width="390" height="550" viewBox="0 0 423 614" fill="none" xmlns="http://www.w3.org/2000/svg">
<g opacity="0.2">
<path d="M220.375 376.657C219.319 364.657 241.335 362.148 350.977 381.738C293.671 400.491 269.622 403.142 258.233 403.081C233.462 402.951 221.432 388.658 220.375 376.657Z" stroke="#020B2C" stroke-width="4"/>
<path d="M338.872 392.315C335.223 442.131 321.58 458.627 315.315 457.508C310.303 456.612 301.531 443.627 338.872 392.315Z" stroke="#020B2C" stroke-width="4"/>
<path d="M304.887 336.43C313.795 322.989 342.478 343.147 394.689 352.476C369.606 358.016 331.168 378.831 315.115 366.298C309.837 362.178 295.98 349.872 304.887 336.43Z" stroke="#020B2C" stroke-width="4"/>
<path d="M354.729 440.106C362.227 440.372 371.92 426.576 396.328 351.477C379.671 366.039 349.843 389.636 344.445 401.557C333.973 424.688 347.231 439.84 354.729 440.106Z" stroke="#020B2C" stroke-width="4"/>
<path d="M359.172 323.966C375.387 332.777 382.934 328.171 425.079 333.554C405.038 319.235 361.562 292.711 353.571 293.933C344.188 295.368 344.697 299.514 345.208 311.806C345.938 313.726 349.752 318.846 359.172 323.966Z" stroke="#020B2C" stroke-width="4"/>
<path d="M394.959 369.106C401.024 359.452 406.161 345.479 427.977 332.196C421.732 350.767 408.351 389.213 403.267 391.135C391.692 395.51 385.881 383.56 394.959 369.106Z" stroke="#020B2C" stroke-width="4"/>
<path d="M223.781 497.059C232.377 469.023 257.066 426.271 300.705 419.597C299.232 433.361 290.209 459.914 283.734 473.731C275.64 491.001 238.127 506.623 227.636 508.227C218.558 509.615 223.781 497.059 223.781 497.059Z" stroke="#020B2C" stroke-width="4"/>
<path d="M297.741 423.85C350.159 377.464 417.577 330.679 442.323 317.914" stroke="#020B2C" stroke-width="4" stroke-linecap="round" stroke-linejoin="round"/>
<path d="M265.389 256.706C239.338 239.541 176.915 256.181 173.864 277.46C190.139 280.947 221.796 282.794 265.389 256.706Z" fill="#437432"/>
<path d="M234.609 284.251C211.317 283.604 166.248 309.144 170.852 324.452C183.462 321.916 212.09 315.001 234.609 284.251Z" fill="#437432"/>
<path d="M330.154 197.366C295.907 182.11 240.891 222.692 223.22 233.813C258.861 242.333 291.76 239.323 330.154 197.366Z" fill="#437432"/>
<path d="M293.341 242.738C252.644 277.159 255.805 300.969 250.835 316.26C259.855 313.146 291.299 286.52 293.341 242.738Z" fill="#437432"/>
<path d="M312.952 233.535C294.208 255.372 298.409 271.899 297.27 282.195C301.892 280.462 316.372 263.57 312.952 233.535Z" fill="#437432"/>
<path d="M341.754 202.223C306.773 252.742 319.376 287.177 319.244 309.405C328.682 304.747 355.699 265.67 341.754 202.223Z" fill="#437432"/>
<path d="M391.564 115.995C330.927 125.947 314.924 158.939 298.848 174.291C308.757 177.841 355.631 170.114 391.564 115.995Z" fill="#437432"/>
<path d="M396.853 135.108C354.72 192.741 368.415 234.488 367.634 260.878C378.748 255.983 411.291 211.401 396.853 135.108Z" fill="#437432"/>
<path d="M234.808 290.553C211.517 289.906 166.447 315.446 171.052 330.754C183.661 328.218 212.289 321.303 234.808 290.553ZM234.808 290.553C252.393 277.929 276.09 256.681 301.325 232.324M293.54 249.039C252.844 283.461 256.004 307.271 251.035 322.562C260.054 319.447 291.499 292.822 293.54 249.039ZM293.54 249.039C296.646 238.67 300.024 233.575 301.325 232.324M313.151 239.837C294.407 261.673 298.608 278.201 297.469 288.497C302.091 286.764 316.571 269.871 313.151 239.837ZM313.151 239.837C315.137 222.647 317.951 216.055 319.111 214.907M341.953 208.525C306.972 259.044 319.575 293.478 319.443 315.707C328.881 311.048 355.898 271.972 341.953 208.525ZM341.953 208.525C348.359 188.669 355.403 178.081 358.125 175.269M391.763 122.297C331.126 132.249 315.123 165.241 299.048 180.593C308.956 184.143 355.831 176.415 391.763 122.297ZM391.763 122.297C403.474 123.708 411.684 118.31 414.326 115.435M397.053 141.41C354.92 199.043 368.614 240.79 367.833 267.179C378.948 262.285 411.49 217.703 397.053 141.41ZM397.053 141.41C398.921 133.594 401.393 129.478 402.395 128.397M428.083 100.275C423.968 104.851 419.352 109.941 414.326 115.435M414.326 115.435C410.566 119.544 406.577 123.879 402.395 128.397M402.395 128.397C389.173 142.678 374.024 158.775 358.125 175.269M358.125 175.269C345.399 188.47 332.194 201.925 319.111 214.907M319.111 214.907C313.137 220.835 307.189 226.663 301.325 232.324M265.588 263.008C239.537 245.843 177.114 262.482 174.063 283.762C190.338 287.249 221.995 289.095 265.588 263.008ZM330.354 203.668C296.106 188.412 241.09 228.994 223.42 240.115C259.061 248.635 291.959 245.625 330.354 203.668Z" stroke="#020B2C" stroke-width="4" stroke-linecap="round" stroke-linejoin="round"/>
</g>
</svg>
