<svg width="502" height="554" viewBox="0 0 502 554" fill="none" xmlns="http://www.w3.org/2000/svg">
<path d="M363.475 295.458C372.227 303.736 357.419 320.221 262.389 378.309C292.822 326.256 309.057 308.318 317.618 300.807C336.238 284.469 354.722 287.181 363.475 295.458Z" fill="#437432"/>
<path d="M264.428 362.365C234.107 322.672 233.369 301.277 238.799 297.958C243.143 295.303 258.321 299.198 264.428 362.365Z" fill="#437432"/>
<path d="M326.934 381.628C329.188 397.595 294.352 401.544 249.1 429.205C264.19 408.418 279.139 367.342 299.465 366.067C306.148 365.648 324.68 365.662 326.934 381.628Z" fill="#437432"/>
<path d="M220.855 337.129C215.069 341.905 216.97 358.658 248.535 431.041C251.336 409.094 257.997 371.648 254.126 359.147C246.615 334.893 226.642 332.353 220.855 337.129Z" fill="#437432"/>
<path d="M294.588 426.972C276.61 431.137 274.02 439.59 238.916 463.526C263.41 460.942 313.538 451.942 318.706 445.726C324.774 438.427 321.642 435.662 313.104 426.804C311.284 425.852 305.033 424.552 294.588 426.972Z" fill="#437432"/>
<path d="M237.863 416.942C239.731 428.189 245.158 442.052 237.649 466.464C230 448.427 214.503 410.783 217.032 405.972C222.789 395.02 235.065 400.104 237.863 416.942Z" fill="#437432"/>
<path d="M281.041 207.635C293.212 234.314 303.105 282.681 274.883 316.629C266.853 305.353 255.986 279.5 251.664 264.867C246.261 246.575 263.963 209.998 270.748 201.837C276.619 194.775 281.041 207.635 281.041 207.635Z" fill="#437432"/>
<path d="M359.087 291.889C367.85 300.156 353.062 316.659 258.103 374.863C288.472 322.773 304.685 304.815 313.237 297.293C331.837 280.933 350.324 283.622 359.087 291.889Z" stroke="#020B2C" stroke-width="4"/>
<path d="M260.123 358.916C229.752 319.26 228.988 297.867 234.414 294.541C238.755 291.88 253.938 295.757 260.123 358.916Z" stroke="#020B2C" stroke-width="4"/>
<path d="M322.652 378.103C324.925 394.067 290.094 398.059 244.875 425.775C259.94 404.97 274.839 363.875 295.163 362.576C301.846 362.149 320.378 362.139 322.652 378.103Z" stroke="#020B2C" stroke-width="4"/>
<path d="M216.518 333.733C210.738 338.516 212.66 355.267 244.314 427.612C247.088 405.661 253.703 368.207 249.816 355.711C242.276 331.466 222.299 328.95 216.518 333.733Z" stroke="#020B2C" stroke-width="4"/>
<path d="M290.361 423.486C272.388 427.673 269.808 436.13 234.733 460.108C259.225 457.495 309.341 448.433 314.502 442.21C320.561 434.904 317.425 432.143 308.877 423.296C307.056 422.346 300.803 421.053 290.361 423.486Z" stroke="#020B2C" stroke-width="4"/>
<path d="M233.624 413.526C235.506 424.771 240.949 438.627 233.47 463.048C225.799 445.02 210.256 407.396 212.779 402.582C218.523 391.622 230.806 396.692 233.624 413.526Z" stroke="#020B2C" stroke-width="4"/>
<path d="M276.546 204.166C288.749 230.83 298.702 279.186 270.521 313.168C262.477 301.902 251.579 276.062 247.239 261.434C241.813 243.148 259.471 206.55 266.246 198.38C272.108 191.312 276.546 204.166 276.546 204.166Z" stroke="#020B2C" stroke-width="4"/>
<path d="M206.178 265.861C200.277 276.363 180.686 266.009 101.232 187.958C159.123 204.819 180.471 216.204 189.839 222.681C210.214 236.77 212.079 255.358 206.178 265.861Z" stroke="#020B2C" stroke-width="4"/>
<path d="M117.193 186.058C148.321 146.994 168.894 141.076 173.434 145.536C177.066 149.104 176.979 164.773 117.193 186.058Z" stroke="#020B2C" stroke-width="4"/>
<path d="M113.709 251.372C98.7693 257.441 86.4672 224.612 48.6317 187.445C72.4643 197.027 115.943 201.538 122.122 220.943C124.154 227.324 128.648 245.303 113.709 251.372Z" stroke="#020B2C" stroke-width="4"/>
<path d="M131.076 137.656C125.036 133.205 109.248 139.124 46.7141 187.344C68.6836 184.723 106.625 182.078 117.809 175.283C139.509 162.099 137.115 142.108 131.076 137.656Z" stroke="#020B2C" stroke-width="4"/>
<path d="M61.8607 231.024C53.4482 214.599 44.6189 214.142 12.8649 185.913C21.3279 209.044 42.2482 255.477 49.5348 258.979C58.0903 263.089 60.0103 259.379 66.5259 248.943C67.0072 246.946 66.7481 240.567 61.8607 231.024Z" stroke="#020B2C" stroke-width="4"/>
<path d="M57.794 173.563C47.3392 178.11 35.2121 186.745 9.70666 185.398C25.3425 173.592 58.0873 149.406 63.3688 150.689C75.3927 153.61 73.4461 166.755 57.794 173.563Z" stroke="#020B2C" stroke-width="4"/>
<path d="M271.318 164.545C248.4 182.838 203.89 204.196 164.098 185.077C173.083 174.546 195.517 157.718 208.66 149.967C225.089 140.278 264.873 148.554 274.439 153.15C282.717 157.127 271.318 164.545 271.318 164.545Z" stroke="#020B2C" stroke-width="4"/>
<path d="M168.945 183.239C99.4944 191.948 17.4348 192.52 -10.1979 189.092" stroke="#020B2C" stroke-width="4" stroke-linecap="round" stroke-linejoin="round"/>
</svg>
